<?xml version="1.0" encoding="utf-8"?>
<!-- Generator: Adobe Illustrator 25.0.0, SVG Export Plug-In . SVG Version: 6.00 Build 0)  -->
<!DOCTYPE svg PUBLIC "-//W3C//DTD SVG 1.1//EN" "http://www.w3.org/Graphics/SVG/1.1/DTD/svg11.dtd" [
	<!ENTITY ns_extend "http://ns.adobe.com/Extensibility/1.0/">
	<!ENTITY ns_ai "http://ns.adobe.com/AdobeIllustrator/10.0/">
	<!ENTITY ns_graphs "http://ns.adobe.com/Graphs/1.0/">
	<!ENTITY ns_vars "http://ns.adobe.com/Variables/1.0/">
	<!ENTITY ns_imrep "http://ns.adobe.com/ImageReplacement/1.0/">
	<!ENTITY ns_sfw "http://ns.adobe.com/SaveForWeb/1.0/">
	<!ENTITY ns_custom "http://ns.adobe.com/GenericCustomNamespace/1.0/">
	<!ENTITY ns_adobe_xpath "http://ns.adobe.com/XPath/1.0/">
]>
<svg version="1.1" id="Layer_1" xmlns:x="&ns_extend;" xmlns:i="&ns_ai;" xmlns:graph="&ns_graphs;"
	 xmlns="http://www.w3.org/2000/svg" xmlns:xlink="http://www.w3.org/1999/xlink" x="0px" y="0px" viewBox="0 0 450 450"
	 style="enable-background:new 0 0 450 450;" xml:space="preserve">
<style type="text/css">
	.st0{fill:#EDC4B0;}
	.st1{fill:#251F12;}
	.st2{fill:#383124;}
	.st3{opacity:0.5;fill:#D9A191;}
	.st4{opacity:0.3;fill:#B89584;}
	.st5{opacity:0.5;fill:#B89584;}
	.st6{fill:#0A0A0A;}
	.st7{fill:#E8E1D8;}
	.st8{fill:#4A2C00;}
	.st9{opacity:0.5;fill:#828F22;}
	.st10{fill:#5E4E46;}
	.st11{fill:#FFFFFF;}
	.st12{fill:#59382D;}
	.st13{opacity:0.3;fill:#59382D;}
	.st14{opacity:0.5;fill:#59382D;}
	.st15{fill:#C49B76;}
	.st16{fill:#D1A57E;}
	.st17{fill:#997D63;}
	.st18{fill:#828F22;}
	.st19{fill:url(#SVGID_1_);}
	.st20{fill:url(#SVGID_2_);}
	.st21{fill:#61300D;}
	.st22{fill:#472106;}
	.st23{fill:#7D441B;}
	.st24{fill:#D9A191;}
	.st25{fill:#B07666;}
	.st26{opacity:0.2;fill:#B89584;}
	.st27{fill:#69230B;}
	.st28{fill:#91462D;}
	.st29{fill:#E8E8E8;}
	.st30{opacity:0.2;fill:url(#SVGID_3_);}
	.st31{opacity:0.2;fill:url(#SVGID_4_);}
	.st32{fill:#9C6A3A;}
	.st33{opacity:0.5;fill:#9C6A3A;}
	.st34{fill:#B07945;}
	.st35{fill:#144A69;}
	.st36{fill:#1C6691;}
	.st37{opacity:0.3;}
	.st38{fill:#B89584;}
	.st39{fill:#1A1A1A;}
	.st40{fill:#55463F;}
	.st41{fill:#5C6914;}
	.st42{fill:#453F34;}
	.st43{opacity:0.5;fill:#1C6691;}
	.st44{fill:#A65735;}
	.st45{fill:#B86B49;}
	.st46{fill:#808080;}
	.st47{opacity:0.3;fill:#808080;}
	.st48{fill:#CCDAE8;}
	.st49{opacity:0.3;fill:#CCDAE8;}
	.st50{fill:#EBF1F7;}
	.st51{fill:#523217;}
	.st52{fill:#754E2B;}
	.st53{fill:#8C5B30;}
	.st54{opacity:0.5;fill:url(#SVGID_5_);}
	.st55{opacity:0.1;fill:#B89584;}
	.st56{opacity:0.2;fill:url(#SVGID_6_);}
	.st57{opacity:0.2;fill:url(#SVGID_7_);}
	.st58{fill:#8A5D33;}
	.st59{opacity:0.3;fill:#8A5D33;}
	.st60{opacity:0.2;fill:url(#SVGID_8_);}
	.st61{opacity:0.2;fill:url(#SVGID_9_);}
	.st62{fill:#141E69;}
	.st63{fill:#222F8F;}
	.st64{fill:#756157;}
	.st65{fill:#574840;}
	.st66{fill:#733C25;}
	.st67{fill:url(#SVGID_10_);}
	.st68{fill:#855E42;}
	.st69{fill:#543D32;}
	.st70{opacity:0.3;fill:#543D32;}
	.st71{fill:url(#SVGID_11_);}
	.st72{opacity:0.3;fill:#855E42;}
	.st73{fill:url(#SVGID_12_);}
	.st74{opacity:0.5;fill:#855E42;}
</style>
<metadata>
	<sfw  xmlns="&ns_sfw;">
		<slices></slices>
		<sliceSourceBounds  bottomLeftOrigin="true" height="399.1" width="767.7" x="20" y="-425"></sliceSourceBounds>
	</sfw>
</metadata>
<g>
	<path class="st0" d="M171.9,248.9c17.4,25.7,15.6,35.1,11.5,47.4c0,0,24.5,26,87.2,14.1c0,0-0.2-19.2,18.7-21.5
		C304.1,287.1,171.9,248.9,171.9,248.9z"/>
	<path class="st0" d="M162.7,233.9c2.1,3.6,7.8,12.5,12.5,20.1c15.2,24.7,10.3,35,10.3,35s3.1-13.1,21.1-8.3
		c26.5,7.1,45.5,8.3,45.5,8.3l-67.2-65.3L162.7,233.9z"/>
	<path class="st0" d="M171.6,243.3c13.2,4.5,41.4,28.8,45.7,31.6c4.3,2.9,11.6-9.6,8.8-15.8c-2.7-6.2-5-23.5-16.3-23.4
		C198.5,235.8,171.6,243.3,171.6,243.3z"/>
	<path class="st1" d="M188.7,250.4c0,5.9-5.5,18.7-5.5,18.7s-6.2-14.7-33-44.9c-10-11.3,10.2-0.5,10.2-0.5L188.7,250.4z"/>
	<path class="st0" d="M312.3,230.4c-0.1,0.6,0.5,3,1.3,4.7c1.8,3.9,4.2,8.8-2.1,13.9c0,0,4.2,7.1,0.3,10.5c-3.9,3.4-5.5,4.8-2.8,9.6
		c2.7,4.8-23,9.5-23,9.5l-60.7-34.8l-25.7-45.2l18.6-27.8l0.4-49.5l52.6,4.6l25.5-0.3c0,0,17.5,39.8,15.8,48.1
		c-1.7,8.4-6.5,11.3-5.1,16.8c1.4,5.5,10.9,20.1,14.5,24.8C325.5,220.2,329.4,226.5,312.3,230.4z"/>
	<g>
		<path class="st1" d="M269.1,90.2C245,79.6,212,75.3,178.3,84.1c-28.3,7.3-34.8,23.7-39.1,34.7c0,0-13.5,15.1-13.8,30.5
			c-0.2,8.3,1.5,18.6,5.2,29.6c3.9,0.2,7.8,0.6,11.7,0.9c10.1,0.9,20.3,0.8,30.4,1.4c11.6,0.7,5.9-0.5,17.3,1.6
			c4.7,0.8-8.4-16.4-3.7-15.3c1,0.2,17.4,1.7,18.4,2c3.9-7.9,17.4,1.4,23.2-3.5c9.6-7.9-10.8-19.8-9.2-19.2
			c14.1,5.8,78.4-3.6,80-17.1C298.6,129.7,304.5,105.8,269.1,90.2z"/>
		<path class="st1" d="M219,212.8c0.3-0.1,0.7-0.1,1,0C220.6,213,219.8,212.8,219,212.8z"/>
	</g>
	<path class="st1" d="M208.5,244.4c-5.3,21.9,5.2,32.4,28.2,40c23,7.6,61.2,16.7,71.5,9.3c6.7-4.8,5.9-21.6,0.7-24.5
		c0,0-14,7-41.6-4.3c-24.9-10.2-40.8-27.9-47.4-52.1c-0.1,0.1-0.9,0.2-1,0c-0.6-1.6-5.5,1.5-6.8,1.1c-1.2-0.4-1.5,1.7-1.5,1.7
		s-2.4-1.2-4.2,2.8v0C209.4,224.7,211.2,233.3,208.5,244.4z"/>
	<path class="st1" d="M206.6,218.4c1.7-4.1,4.2-2.8,4.2-2.8s1.2-1.9,4.5-1.8c1.3,0,5,0,4.7-0.9c-6.6-21.6,1.8-30.5,11.2-38.7
		c12.9-11.3,1.5-28.5-7.3-32.6c-12.9-6.4-25.8-19.8-46-20.1c-31.1-0.6-39,0-39,0s-12.3,12.5-13.5,27.9c-2,27.3,2.8,41.9,17.5,65.7
		c4.1,6.6,12.1,14.2,17.5,19.9c5.8,6.1,15.6,11.8,25.8,14c0,0-24.6-38.9-13-45.2c11.6-6.3,25.4,2.1,25.4,2.1
		C200.1,208.1,203.9,212.2,206.6,218.4L206.6,218.4z"/>
	<path class="st1" d="M222.7,221.2c1.4,3.4,6.9,10,6.9,10.4c0,0.4,1.3,5.2,2.6,6.9c1.3,1.7,5.9,4.8,5.9,4.8s0.1,2.4,1,3.3
		c0.9,0.9,3.1,1.9,3.1,1.9s-0.3,0.8,0.8,1.7c1,0.9,2.3,1.9,2.3,1.9l2,0.8c0,0,1.7,2,3,2.9c1.4,0.9,5,2.8,5,2.8s2.2,1.7,3.6,2.4
		c1.5,0.7,6.1,0.8,7.3,2.4c1.2,1.6,4.9,2.1,5.3,2.1c0.4,0,1,1.5,3.5,2.3c2.5,0.8,5.6,0.8,5.6,0.8l2.9,1.4l-14.9,5.1
		c0,0-38-11.7-38.2-12.4c-0.3-0.8-9.1-25.9-9.5-27.3C220.4,233.8,222.7,221.2,222.7,221.2z"/>
	<path class="st1" d="M309,269.2c0,0-1.6,0.4-2.5,0c0,0,0.4,0.9-1.2,1.2c-1.6,0.3-1.8-0.6-1.8-0.6s-0.6,1.1-1.1,1.1
		c-0.6,0.1-1.6-0.5-1.6-0.5s-0.6,0.7-1.5,0.8c-0.9,0-1.8-0.7-1.8-0.7s0.3,0.7-1.7,0.7c-2,0-4.8-1.6-4.8-1.6s-0.3,1-3.1,1
		c-2.8,0-3.5-1.5-3.5-1.5s-0.9,0.7-2.3,0c-1.4-0.7-2.6,2.1-2.6,2.1s12,9,14.1,9.4c2.1,0.4,14.5-2.3,14.8-3.6
		C308.6,275.7,309,269.2,309,269.2z"/>
	<path class="st1" d="M286.3,258.5c0.5-1.1,3.4-6.5,6.3-7.7c2-0.8,5.3-4,6.4-4.3c1.1-0.3,1.4-4.2,1.4-4.2l-7.1,2.2
		c0,0-5.4,6.6-5.5,7C287.7,251.9,286.3,258.5,286.3,258.5z"/>
	<path class="st1" d="M301.8,234.9c-4.1,1.3-8.5,2.2-13.5,7.4c-1.3,1.3-4.3,7.2-3,11.1c1.3,3.9,14.7-13.1,14.7-13.1L301.8,234.9z"/>
	<path class="st0" d="M206.6,218.4c-2.7-6.2-6.5-10.3-8-12.6c-4.8-6-18-15.9-29.8-8.9c-11.8,7-2.4,24.9,5.4,32.9
		c3.9,4,5.6,9.1,8.4,14.3c5.6,10.3,17.7,8.7,25,4.9c0,0-0.2,1.8-0.2,1.8c0.2-2,0.6-4.1,1.1-6.4C211.2,233.3,209.4,224.7,206.6,218.4
		z"/>
	<path class="st1" d="M208.5,244.4c-3.6,10.7-2.1,30.4,6,36.3c7.8,5.7,13.1,24.6,22.2,26.4c5.7,1.2,6.4,14,18.2,20
		c11.7,6,6.7,16.3,18.8,21.9c9.7,4.5,14.7,16.5,25.5,19.2c0,0,3.3-9.7,5.8-19.9c2.3-9.3,0.1-13,3.6-19.3c5.9-10.4,5.5-22.1,4.8-24.6
		c-1.4-5.7,1.4-17.3-0.5-25.9c-1.9-8.5-8.9-2.1-8.9-2.1s-45,5.2-55.9-1C237.2,269.1,208.5,244.4,208.5,244.4z"/>
	<path class="st1" d="M285.9,278.7c0,0,25.7-4.7,23-9.5c-2.7-4.8-1.1-6.2,2.8-9.6c-6.1,4.3-15.3,0.6-16.7-1
		c-1.4-1.7-5.3-1.1-6.2-4.5c-0.8-3.4,16.7-18.3,16.7-18.3s-12.8,2.4-17.3,6.6c-7.7,7.3-6.5,4.9-15.2,5.2c-8.7,0.3-5.7-1.4-10.8-0.4
		c-5.1,0.9-4.5-1.2-10.2-1.9c-4.4-0.5-5.1-3-10-3.6c-9.9-1.2-5.3-4.6-12.5-10c0,0-0.7,6.5-1.1,14.2L285.9,278.7z"/>
	<path class="st1" d="M311.7,259.6c-0.5,3.9,3.1,8,5.6,13.4c2.5,5.4-1.8,10.7,0,14.3c1.8,3.6-4.1,11.3-1.8,14.5
		c2.3,3.2,2.1,4.2,0,8.4c-2.1,4.2-1.2,14.5-3.8,17.7c-2.6,3.2-4.1,5.9-2.8,8.4c1.4,2.5-0.5,4.8-0.5,8.6c0,3.9-0.4,10.7-3.6,13.4
		c-3.2,2.7-4.1,10.2,0,12.4c0,0-8.6-2.5-14.5-9.2c-5.8-6.7,3.2-36.5,2.9-38.1c-0.3-1.6,7.1-56,7.1-56L311.7,259.6z"/>
	<path class="st0" d="M196.4,140.2c0,0,3.4,1.1,8.5,2.4c5.2,1.4,12.1,3,19.1,4.2c3.5,0.6,7,1.2,10.3,1.6c3.3,0.4,6.4,0.7,9,0.9
		c2.6,0.2,4.8,0.3,6.4,0.4c1.5,0.1,2.4,0.1,2.4,0.1l-0.1,2.4c0,0-0.9-0.1-2.5-0.2c-1.6-0.1-3.8-0.3-6.5-0.6
		c-2.7-0.3-5.8-0.7-9.1-1.3c-3.3-0.5-6.8-1.3-10.3-2c-7-1.5-13.8-3.4-18.9-5C199.7,141.4,196.4,140.2,196.4,140.2z"/>
	<path class="st2" d="M290.2,131.1c0,0,0.1-1.6-1.1-4.1c-1.1-2.5-3.3-5.7-6.3-9.1c-3.1-3.5-7.1-7-11.9-10.3
		c-2.4-1.7-4.9-3.2-7.6-4.6c-2.7-1.5-5.5-2.7-8.3-3.8c-2.9-1.1-5.8-2.1-8.7-2.9c-1.5-0.4-2.9-0.8-4.4-1.1c-1.4-0.3-2.9-0.6-4.3-0.9
		c-1.4-0.3-2.8-0.5-4.2-0.7c-1.4-0.2-2.7-0.4-4-0.5c-2.6-0.3-5.1-0.4-7.5-0.5c-2.3,0-4.4-0.1-6.3,0c-1.9,0.1-3.5,0-4.9,0.2
		c-2.7,0.2-4.3,0.3-4.3,0.3s1.5-0.2,4.2-0.6c1.3-0.2,3-0.3,4.9-0.5c1.9-0.2,4-0.2,6.4-0.3c2.3,0,4.9,0,7.6,0.2
		c1.3,0.1,2.7,0.2,4.1,0.3c1.4,0.1,2.8,0.3,4.3,0.6c1.5,0.2,2.9,0.5,4.4,0.8c1.5,0.3,3,0.7,4.5,1.1c3,0.8,6,1.8,8.9,2.9
		c2.9,1.2,5.8,2.5,8.4,4c2.7,1.5,5.3,3.1,7.7,4.8c4.8,3.4,8.7,7.3,11.7,10.9c3,3.6,4.9,7.1,5.9,9.7c0.5,1.3,0.7,2.4,0.7,3.1
		C290.3,130.7,290.2,131.1,290.2,131.1z"/>
	<path class="st2" d="M262.3,140.2c0,0-1.5,0.1-4.2,0.4c-2.7,0.1-6.5,0.3-11.1,0.2c-2.3-0.1-4.8-0.1-7.4-0.4
		c-2.6-0.2-5.4-0.4-8.3-0.7c-2.9-0.3-5.8-0.7-8.8-1.1c-3-0.5-6-0.9-9.1-1.5c-3-0.6-6-1.3-9-2c-3-0.7-5.8-1.6-8.6-2.3
		c-2.8-0.8-5.4-1.8-7.9-2.7c-2.4-1.1-4.8-1.9-6.9-2.9c-2.1-1-4-1.9-5.6-3c-1.6-1-3.1-1.8-4.1-2.6c-2.1-1.7-3.3-2.6-3.3-2.6
		s1.3,0.8,3.5,2.3c1.1,0.8,2.6,1.4,4.2,2.3c1.6,0.9,3.6,1.7,5.7,2.6c2.1,1,4.5,1.7,6.9,2.6c2.5,0.8,5.1,1.6,7.9,2.4
		c2.8,0.7,5.6,1.6,8.5,2.2c2.9,0.7,5.9,1.3,8.9,1.9c3,0.6,6,1.1,9,1.6c3,0.4,5.9,0.9,8.7,1.2c2.8,0.4,5.6,0.7,8.2,1
		c2.6,0.3,5.1,0.5,7.4,0.7c2.3,0.1,4.4,0.3,6.3,0.4c1.9,0.1,3.5,0.1,4.8,0.1C260.8,140.2,262.3,140.2,262.3,140.2z"/>
	<path class="st2" d="M199.6,123c0,0,0.8,0.3,2.1,0.9c1.3,0.5,3.3,1.2,5.6,2c2.3,0.8,5.1,1.6,8.1,2.4c3,0.8,6.2,1.6,9.4,2.3
		c3.2,0.7,6.4,1.3,9.5,1.8c3,0.5,5.9,1,8.3,1.3c2.4,0.4,4.5,0.6,5.9,0.8c1.4,0.2,2.3,0.3,2.3,0.3s-0.8,0-2.3,0c-1.4,0-3.5,0.1-6-0.1
		c-2.5-0.1-5.4-0.3-8.5-0.7c-3.1-0.4-6.4-1-9.6-1.6c-3.2-0.7-6.5-1.5-9.4-2.5c-3-0.9-5.7-2-8-3c-2.3-1-4.1-1.9-5.4-2.6
		C200.3,123.4,199.6,123,199.6,123z"/>
	<path class="st2" d="M276.5,103.5c0,0-0.3-0.3-0.9-0.7c-0.6-0.5-1.5-1.1-2.7-1.8c-2.4-1.4-6-3-10.5-4.6c-4.5-1.6-9.9-3.1-15.7-4.4
		c-5.8-1.3-12.1-2.4-18.4-3c-6.3-0.7-12.7-1-18.6-0.8c-3,0.1-5.8,0.3-8.6,0.6c-1.4,0.2-2.7,0.4-3.9,0.5c-1.3,0.2-2.5,0.5-3.6,0.7
		c-2.3,0.5-4.4,1.1-6.3,1.7c-1.8,0.7-3.4,1.2-4.7,1.9c-1.3,0.5-2.2,1.1-2.9,1.5c-0.7,0.4-1,0.5-1,0.5s0.3-0.2,1-0.6
		c0.6-0.4,1.5-1.1,2.8-1.7c1.2-0.7,2.8-1.4,4.6-2.2c0.9-0.3,1.9-0.7,2.9-1.1c1-0.4,2.2-0.6,3.3-1c1.2-0.3,2.4-0.6,3.7-0.9
		c1.3-0.2,2.6-0.5,4-0.7c2.7-0.4,5.7-0.7,8.7-0.8c6-0.3,12.5-0.1,18.9,0.6c6.4,0.7,12.7,1.9,18.6,3.3c2.9,0.7,5.7,1.5,8.4,2.4
		c2.6,0.9,5.1,1.7,7.3,2.6c4.5,1.8,8,3.7,10.4,5.3c1.2,0.8,2,1.5,2.6,2C276.2,103.2,276.5,103.5,276.5,103.5z"/>
	<path class="st2" d="M277.9,134.6c0,0-0.2-0.3-0.6-0.8c-0.3-0.5-1-1.2-1.7-2.1c-1.6-1.7-4-4-7.1-6.5c-1.5-1.3-3.3-2.5-5.1-3.9
		c-1.9-1.2-3.9-2.6-6-3.9c-2.1-1.3-4.4-2.5-6.7-3.8c-2.3-1.2-4.7-2.3-7.2-3.3c-2.5-0.9-4.9-2.1-7.4-2.8c-2.5-0.8-4.9-1.6-7.3-2.2
		c-1.2-0.3-2.4-0.6-3.5-0.9c-1.2-0.2-2.3-0.5-3.4-0.7c-2.2-0.4-4.4-0.9-6.4-1c-2-0.2-3.8-0.5-5.4-0.6c-1.6-0.1-3-0.2-4.2-0.2
		c-2.3-0.1-3.7-0.2-3.7-0.2s1.3,0,3.7-0.1c1.2,0,2.6-0.1,4.2-0.1c1.6,0,3.5,0.2,5.5,0.3c2,0.1,4.2,0.4,6.5,0.7
		c1.1,0.2,2.3,0.3,3.5,0.5c1.2,0.3,2.4,0.6,3.6,0.8c2.5,0.5,5,1.3,7.5,2.1c2.6,0.7,5,1.8,7.6,2.7c2.5,1.1,4.9,2.2,7.3,3.5
		c2.3,1.3,4.6,2.5,6.7,3.9c2.2,1.3,4.1,2.8,6,4.2c1.8,1.5,3.5,2.8,5,4.2c1.5,1.3,2.8,2.7,3.9,3.9c1.1,1.2,2,2.3,2.8,3.2
		c0.7,0.9,1.2,1.7,1.5,2.2C277.8,134.3,277.9,134.6,277.9,134.6z"/>
	<path class="st2" d="M270.1,138.5c0,0-0.3-0.3-0.9-0.9c-0.3-0.3-0.6-0.7-1.1-1.1c-0.5-0.4-1-0.8-1.6-1.3c-1.2-0.9-2.8-1.9-4.7-2.9
		c-1.9-0.9-4.2-1.8-6.7-2.7c-5-1.7-11.1-3-17.5-4.5c-6.5-1.5-13.4-3.1-20.3-5c-6.8-1.9-13.6-4.1-19.9-6.1c-6.3-2-12.2-4-17.4-5
		c-2.6-0.6-5-0.9-7.1-1c-2.1-0.1-4,0.1-5.5,0.3c-1.5,0.3-2.7,0.6-3.5,0.9c-0.8,0.3-1.2,0.4-1.2,0.4s0.4-0.2,1.2-0.5
		c0.8-0.4,1.9-0.8,3.4-1.2c1.5-0.3,3.4-0.7,5.6-0.7c2.2-0.1,4.7,0.2,7.3,0.7c10.6,1.9,24,6.7,37.6,10.4c6.8,1.9,13.7,3.6,20.1,5.2
		c6.5,1.6,12.5,3.3,17.5,5.1c1.3,0.5,2.4,1,3.6,1.4c1.1,0.6,2.2,1,3.1,1.6c1.9,1.1,3.5,2.2,4.7,3.2c0.6,0.5,1.1,1,1.5,1.4
		c0.4,0.4,0.7,0.8,1,1.2C269.8,138.2,270.1,138.5,270.1,138.5z"/>
	<path class="st2" d="M295.6,131.1c0,0-0.1-0.8-0.4-2.3c-0.2-0.7-0.3-1.6-0.6-2.6c-0.3-1-0.6-2.1-1-3.3c-0.4-1.2-0.9-2.5-1.4-3.8
		c-0.6-1.3-1.3-2.7-2-4.1c-0.7-1.4-1.7-2.7-2.5-4.1c-1-1.3-2-2.7-3.1-3.9c-1-1.3-2.3-2.4-3.5-3.6c-1.3-1-2.5-2.2-3.7-3.1
		c-1.3-0.9-2.5-1.9-3.8-2.6c-1.3-0.7-2.4-1.5-3.6-2c-1.1-0.5-2.2-1.1-3.1-1.6c-1-0.4-1.8-0.7-2.5-1c-1.4-0.6-2.2-0.9-2.2-0.9
		s0.8,0.2,2.3,0.6c0.7,0.2,1.6,0.4,2.6,0.7c1,0.4,2.1,0.8,3.3,1.3c1.2,0.4,2.4,1.2,3.8,1.8c1.4,0.6,2.7,1.5,4,2.4
		c1.4,0.9,2.7,2,4,3.1c1.2,1.2,2.6,2.3,3.7,3.7c1.2,1.3,2.2,2.7,3.2,4.1c0.9,1.4,1.8,2.9,2.5,4.4c0.8,1.4,1.3,2.9,1.8,4.3
		c0.5,1.4,0.9,2.8,1.2,4c0.3,1.3,0.5,2.4,0.6,3.5c0.2,1,0.2,2,0.3,2.7C295.7,130.2,295.6,131.1,295.6,131.1z"/>
	<path class="st2" d="M288.3,124.8c0,0-0.5-0.5-1.4-1.3c-0.9-0.8-2.1-2-3.7-3.3c-0.8-0.7-1.6-1.4-2.5-2.1c-0.9-0.8-1.9-1.5-2.8-2.3
		c-2-1.5-4.2-3.1-6.4-4.6c-1.1-0.8-2.2-1.5-3.4-2.1c-1.1-0.7-2.3-1.3-3.4-1.9c-1.1-0.6-2.2-1.1-3.2-1.6c-1-0.5-2-1-3-1.4
		c-0.9-0.4-1.8-0.8-2.6-1.1c-0.8-0.3-1.5-0.5-2-0.7c-1.1-0.4-1.8-0.7-1.8-0.7s0.7,0.1,1.9,0.2c1.2,0.2,2.9,0.4,4.9,1
		c1,0.2,2.1,0.6,3.2,1c1.1,0.4,2.3,0.8,3.5,1.4c2.4,1,4.8,2.4,7.2,3.9c1.2,0.7,2.3,1.6,3.4,2.4c1.1,0.8,2.1,1.7,3.1,2.5
		c1.9,1.8,3.6,3.5,5,5.1c1.4,1.6,2.4,3,3.1,4C288,124.2,288.3,124.8,288.3,124.8z"/>
	<path class="st2" d="M285.3,136.4c0,0-0.1-0.2-0.2-0.4c-0.2-0.3-0.4-0.6-0.7-1.1c-0.6-1-1.6-2.3-2.8-3.8c-1.2-1.5-2.6-3.4-4.2-5.2
		c-0.8-1-1.6-1.9-2.5-2.8c-0.8-1-1.8-1.9-2.6-2.8c-0.9-0.9-1.8-1.8-2.8-2.7c-1-0.8-1.8-1.7-2.8-2.5c-1-0.7-1.8-1.6-2.7-2.2
		c-0.9-0.6-1.7-1.3-2.6-1.8c-0.8-0.5-1.6-1-2.2-1.4c-0.7-0.4-1.3-0.7-1.8-1c-1-0.5-1.6-0.9-1.6-0.9s0.6,0.1,1.8,0.4
		c1.1,0.3,2.7,0.8,4.6,1.6c0.9,0.4,1.9,1,2.9,1.5c1,0.5,2,1.3,3,2c2.1,1.5,4.1,3.3,6,5.1c1.8,2,3.6,4,5.1,6c1.5,2,2.7,4,3.7,5.8
		c0.9,1.8,1.6,3.3,2,4.4c0.2,0.5,0.3,1,0.4,1.3C285.2,136.3,285.3,136.4,285.3,136.4z"/>
	<path class="st2" d="M152.4,118.1c0,0,0.9,0.5,2.6,1.4c1.6,0.9,4,2,6.9,3.4c2.9,1.4,6.3,2.8,10,4.3c3.7,1.5,7.7,3,11.7,4.3
		c2,0.7,4,1.3,6,2c2,0.6,4,1.2,5.9,1.7c1.9,0.5,3.8,1,5.5,1.5c1.8,0.5,3.5,0.8,5,1.2c1.6,0.4,3,0.8,4.2,1c1.3,0.3,2.4,0.5,3.3,0.7
		c1.8,0.4,2.9,0.7,2.9,0.7s-1.1-0.1-2.9-0.3c-1.9-0.2-4.5-0.5-7.7-1.1c-1.6-0.3-3.3-0.5-5.1-0.9c-1.8-0.4-3.7-0.8-5.7-1.3
		c-1.9-0.5-3.9-1.1-6-1.6c-2-0.6-4.1-1.3-6.1-1.9c-4-1.4-8-3-11.7-4.6c-3.7-1.6-7-3.3-9.9-4.8c-2.8-1.5-5.1-3-6.6-4
		C153.2,118.8,152.4,118.1,152.4,118.1z"/>
	<path class="st2" d="M149,132.6c0,0-0.7,1.1-2,3c-0.5,1-1.1,2.3-1.8,3.7c-0.5,1.5-1.2,3.1-1.8,5c-0.5,1.9-1.1,3.9-1.5,6.1
		c-0.5,2.2-0.8,4.5-1.1,6.9c-0.3,2.4-0.5,4.9-0.7,7.5c-0.1,2.6-0.2,5.2-0.1,7.8c0,2.6,0.2,5.2,0.4,7.7c0.3,2.5,0.6,5,1,7.4
		c0.5,2.4,0.8,4.7,1.5,6.9c0.3,1.1,0.6,2.1,0.8,3.1c0.4,1,0.7,1.9,1,2.9c0.3,0.9,0.6,1.8,1,2.6c0.4,0.8,0.7,1.6,1.1,2.3
		c0.6,1.5,1.2,2.7,1.9,3.7c1.2,2,1.9,3.1,1.9,3.1s-0.8-1.1-2.2-2.9c-0.7-0.9-1.4-2.1-2.2-3.5c-0.4-0.7-0.8-1.5-1.3-2.2
		c-0.4-0.8-0.7-1.7-1.1-2.6c-0.4-0.9-0.8-1.9-1.2-2.9c-0.3-1-0.7-2.1-1-3.2c-0.8-2.2-1.2-4.5-1.8-6.9c-0.5-2.4-0.8-5-1.1-7.6
		c-0.2-2.6-0.5-5.2-0.5-7.9c-0.1-2.6,0.1-5.3,0.2-7.9c0.2-2.6,0.5-5.1,0.8-7.6c0.4-2.4,0.8-4.8,1.4-7c0.5-2.2,1.2-4.3,1.8-6.1
		c0.6-1.9,1.5-3.5,2.1-5c0.8-1.4,1.5-2.6,2.1-3.6C148.2,133.6,149,132.6,149,132.6z"/>
	<path class="st2" d="M147.4,143.6c0,0-0.1,0.2-0.2,0.5c-0.1,0.3-0.2,0.8-0.4,1.4c-0.3,1.2-0.5,3-0.8,5.2c-0.3,2.1-0.5,4.7-0.7,7.3
		c-0.1,2.7-0.3,5.6-0.2,8.4c0,2.9,0.2,5.7,0.5,8.4c0.2,1.3,0.4,2.6,0.5,3.8c0.2,1.2,0.5,2.3,0.7,3.4c0.3,1,0.6,2,0.8,2.8
		c0.2,0.9,0.5,1.6,0.7,2.1c0.4,1.2,0.7,1.9,0.7,1.9s-0.4-0.6-1-1.7c-0.3-0.6-0.7-1.2-1.1-2.1c-0.3-0.8-0.8-1.7-1.1-2.8
		c-0.3-1.1-0.7-2.2-1-3.4c-0.3-1.2-0.6-2.5-0.8-3.9c-0.2-1.4-0.4-2.8-0.5-4.2c-0.1-1.4-0.2-2.9-0.2-4.4c0-2.9,0.1-5.9,0.4-8.6
		c0.3-2.7,0.8-5.2,1.3-7.4c0.4-2.1,1.1-3.9,1.5-5.1C146.9,144.2,147.4,143.6,147.4,143.6z"/>
	<path class="st2" d="M165.2,138.5c0,0-0.5,0.4-1.2,1.4c-0.7,0.9-1.6,2.3-2.4,4c-0.4,0.9-0.9,1.8-1.3,2.9c-0.4,1-0.7,2.2-1.1,3.3
		c-0.4,1.2-0.6,2.4-0.9,3.6c-0.2,1.3-0.5,2.5-0.7,3.8c-0.2,1.3-0.4,2.6-0.5,3.9c-0.1,1.3-0.3,2.5-0.3,3.8c0,1.2-0.1,2.4-0.1,3.5
		c0,1.1,0,2.2,0,3.2c0,2,0.1,3.6,0.1,4.8c0,1.2,0,1.8,0,1.8s-0.1-0.6-0.4-1.8c-0.2-1.1-0.6-2.8-0.8-4.8c-0.2-2-0.5-4.3-0.5-6.8
		c-0.1-1.3,0-2.6,0.1-3.9c0-1.3,0.3-2.6,0.4-4c0.1-1.3,0.5-2.6,0.7-3.9c0.3-1.3,0.7-2.5,1.1-3.7c0.4-1.2,0.9-2.3,1.4-3.4
		c0.5-1.1,1.1-2,1.6-2.9c1.1-1.7,2.2-2.9,3.1-3.8C164.6,138.8,165.2,138.5,165.2,138.5z"/>
	<path class="st2" d="M172.9,146.2c0,0,0.7,2.3,1.6,5.9c0.4,1.8,0.9,3.9,1.2,6.2c0.4,2.3,0.7,4.7,1,7.1c0.3,2.4,0.5,4.9,0.5,7.2
		c0.1,2.3,0,4.5-0.1,6.3c-0.1,1.8-0.3,3.4-0.5,4.4c-0.2,1.1-0.4,1.7-0.4,1.7s0-0.6,0-1.7c0-1.1-0.1-2.6-0.1-4.4
		c-0.1-1.8-0.3-3.9-0.5-6.2c-0.2-2.3-0.5-4.7-0.7-7.1c-0.3-2.4-0.5-4.8-0.8-7.1c-0.2-2.3-0.5-4.4-0.7-6.2
		C173,148.6,172.9,146.2,172.9,146.2z"/>
	<path class="st2" d="M163.3,154c0,0,0,2.1-0.1,5.2c-0.1,3.1-0.3,7.3-0.4,11.5c-0.1,2.1-0.1,4.2-0.2,6.1c0,1.9,0,3.8,0,5.3
		c0.1,1.6,0,2.9,0.1,3.8c0,0.9,0,1.4,0,1.4s-0.7-2-1.2-5.1c-0.2-1.6-0.4-3.4-0.5-5.4c-0.1-2-0.1-4.1,0-6.2c0.2-4.2,0.6-8.4,1.2-11.5
		C162.7,156.1,163.3,154,163.3,154z"/>
	<path class="st2" d="M193.4,149.7c0,0,0.5,0.4,1.1,1.1c0.6,0.8,1.5,2,2.3,3.5c0.8,1.5,1.6,3.5,2.2,5.6c0.3,1.1,0.6,2.1,0.8,3.3
		c0.2,1.1,0.4,2.3,0.5,3.4c0.1,1.2,0.2,2.3,0.3,3.5c0.1,1.1,0.1,2.3,0,3.4c0,2.2-0.2,4.2-0.4,5.9c-0.2,1.7-0.5,3.1-0.7,4.1
		c-0.2,1-0.3,1.6-0.3,1.6s0-0.6,0-1.6c0-1,0-2.4,0-4.2c0-0.9,0-1.8,0-2.8c0-1-0.1-2-0.1-3.1c0-1.1-0.1-2.2-0.2-3.3
		c-0.1-1.1-0.2-2.2-0.3-3.4c-0.2-2.3-0.6-4.5-1.1-6.5c-0.5-2.1-1-4-1.6-5.5C194.7,151.6,193.4,149.7,193.4,149.7z"/>
	<path class="st2" d="M205.3,161.9c0,0,0.9,2.4,1.8,6.2c0.9,3.7,1.9,8.8,2.2,14c0.2,2.6,0.3,5.2,0.2,7.6c0,1.2-0.2,2.4-0.3,3.5
		c-0.1,1.1-0.3,2.1-0.5,3.1c-0.1,1-0.4,1.8-0.7,2.6c-0.2,0.8-0.4,1.4-0.7,1.9c-0.5,1-0.7,1.6-0.7,1.6s0.1-0.6,0.4-1.7
		c0.2-0.5,0.3-1.2,0.4-2c0.1-0.8,0.2-1.6,0.3-2.6c0.1-0.9,0.2-2,0.2-3.1c0-1.1,0-2.2,0-3.4c0-2.4-0.2-4.9-0.4-7.4
		c-0.2-2.5-0.5-5.1-0.7-7.4c-0.3-2.4-0.5-4.6-0.7-6.5C205.6,164.5,205.3,161.9,205.3,161.9z"/>
	<path class="st2" d="M209.8,152.2c0,0,0.3,0.3,0.8,0.9c0.5,0.6,1.2,1.4,1.9,2.6c0.7,1.1,1.4,2.5,1.9,4.1c0.6,1.5,1,3.3,1.4,5
		c0.3,1.7,0.5,3.5,0.5,5.1c0,1.6-0.1,3.2-0.3,4.5c-0.1,1.3-0.4,2.4-0.6,3.1c-0.2,0.7-0.3,1.2-0.3,1.2s0-0.4-0.1-1.2
		c0-0.8,0-1.8-0.1-3.1c0-1.3-0.2-2.8-0.3-4.3c-0.2-1.6-0.4-3.2-0.7-4.9c-0.6-3.3-1.5-6.5-2.4-8.9c-0.5-1.2-0.9-2.2-1.2-2.8
		C210.1,152.6,209.8,152.2,209.8,152.2z"/>
	<path class="st2" d="M142,132.6c0,0-0.4,0.6-1.1,1.8c-0.7,1.1-1.6,2.8-2.7,4.9c-0.5,1-1.1,2.1-1.6,3.3c-0.6,1.2-1,2.5-1.6,3.8
		c-0.5,1.3-1,2.7-1.5,4.1c-0.4,1.4-1,2.8-1.3,4.3c-0.4,1.5-0.8,2.9-1,4.4c-0.1,0.7-0.3,1.5-0.4,2.2c-0.1,0.7-0.2,1.4-0.3,2.1
		c-0.2,1.4-0.3,2.8-0.4,4.1c-0.1,1.3-0.1,2.5-0.1,3.7c0,1.1,0.1,2.2,0.1,3.1c0.1,0.9,0.2,1.7,0.3,2.4c0.1,1.3,0.2,2.1,0.2,2.1
		s-0.2-0.7-0.6-2c-0.2-0.7-0.4-1.5-0.6-2.4c-0.2-0.9-0.3-2-0.4-3.1c-0.2-1.2-0.2-2.4-0.2-3.8c-0.1-1.3-0.1-2.8,0.1-4.2
		c0.1-1.5,0.2-3,0.5-4.5c0.2-1.5,0.6-3,1-4.5c0.4-1.5,0.9-3,1.4-4.4c0.5-1.4,1.1-2.8,1.7-4.2c1.2-2.6,2.6-5,3.8-7
		c1.2-2,2.4-3.5,3.3-4.6C141.4,133.2,142,132.6,142,132.6z"/>
	<path class="st3" d="M312,243.9c-12.7,2-21.3,8-19.8,8.4c1.5,0.5,3.7,0.3,6.7,1.6c3,1.3,9.6,7.3,13.7,4.7c1.5-2.6,0.4-6.6-0.4-8.5
		c-0.4-0.7-0.7-1.2-0.7-1.2c0.2-0.2,0.5-0.3,0.7-0.5c2.1-2.2,3.2-5,3.3-7.1C314.1,242.3,312,243.9,312,243.9z"/>
	<path class="st3" d="M298.2,250.4c2.2,0.5,13.3-1.4,13.3-1.4l0.7,1.2C312.2,250.2,308,252,298.2,250.4z"/>
	<g>
		<path class="st4" d="M287.5,195.9c0.4-4.2,1.1-3.6,2.7-5.4c1.6-1.7,0.9-5.2,2.3-6.1c1.4-0.9,3.2-4.6,1.3-7.2
			c-1.9-2.6-8.2-5.9-20.3-2.5c-12.2,3.4-9.8,3.9-5.2,2.8c6.6-1.5,0.3,6.7-1.6,8.6c-3,3-5.7,6.2,0.7,7
			C273.6,194,287.5,195.9,287.5,195.9z"/>
		<path class="st4" d="M285.7,185.1c-2.4-4.7-3.6-5-5.6-4.5c-2.5,0.7-19.8,14-11.9,12.6C276.3,191.9,285.7,185.1,285.7,185.1z"/>
		<path class="st5" d="M314.4,227.6c-3.4-1.3-11.5-0.6-12.6,1.7c-1.2,2.3,3.5,0.7,5.2,0.3C308.8,229.2,316.1,228,314.4,227.6z"/>
		<path class="st5" d="M314.4,227.6c-3.4-1.3-11.5-0.6-12.6,1.7c-1.2,2.3,3.5,0.7,5.2,0.3C308.8,229.2,316.1,228,314.4,227.6z"/>
		<path class="st4" d="M324.4,224c-3.6,3.6-10,3.6-10,3.6c1.6,0.4-5.7,1.6-7.4,1.9c-1.5,0.3-5,1.5-5.4,0.5c-1.1,1.2-0.9,2.7-2.9,1
			c-2.9-2.5-1.7-9.6,0.1-10.5c-3.3,1.2-5.5,6.4-3.5,9.5c2,3.1,4.6,4.6,9.5,2.8c1.4-0.5,4.3-0.8,7.4-1.3c-0.1-0.5-0.2-0.9-0.1-1.1
			C320,228.7,323.4,226.4,324.4,224z"/>
		<path class="st1" d="M293.8,165.8c1.3,4.5,2.1,7.7-2,8.6c-4.1,0.9-13.8,0.2-25.9,5.7c-6.1,2.8-16.3,7-17,5.6
			c-0.7-1.4,2.8-4,11-9.8c6-4.3,10.7-7.3,19-9C287.7,165.2,293.4,164.5,293.8,165.8z"/>
		<path class="st6" d="M290,182.5c0.2,0.7,3.2,1.5-4.2,2.6c-7.5,1.1,0.8,6,0.8,6s1.7,3.5,1,4.9c-0.7,1.4-10.9,2.5-17.6-0.3
			c-4.2-1.7-5.8-2.6-2-4.8c3.7-2.2,6-4.2,13.1-7C288.6,180.9,289.7,181.1,290,182.5z"/>
		<path class="st7" d="M268.3,193.2c-1-1.2,6.2-6.5,17.4-8.2c0,0,2,0.8,2.1,5.1c0.1,4.3-0.9,5.7-7.4,6
			C273.9,196.6,270.2,195.6,268.3,193.2z"/>
		<path class="st8" d="M285.7,185.1c-0.9,0.1-1.8,0.3-2.7,0.5c-1.8,0.7-2.9,2.1-3,4.5c-0.1,2.7,1.8,5.6,4.5,5.6
			c2.8-0.8,3.3-2.4,3.2-5.5C287.7,185.9,285.7,185.1,285.7,185.1z"/>
		<path class="st9" d="M285,195.4c-2.7,0-4.5-2.8-4.4-5.4c0.1-2.3,1.2-3.6,2.9-4.3c0.8-0.2,1.6-0.3,2.5-0.4
			c-0.2-0.1-0.3-0.2-0.3-0.2c-0.9,0.1-1.8,0.3-2.7,0.5c-1.8,0.7-2.9,2.1-3,4.5c-0.1,2.7,1.8,5.6,4.5,5.6c0.7-0.2,1.3-0.5,1.7-0.8
			C285.9,195.1,285.5,195.3,285,195.4z"/>
		<g>
			<path class="st10" d="M273.7,188.6c-3.9,1.9-7.1,3.9-6.5,4.6c1.5,1.8,5.1,2.9,9.2,3.1C269.1,195.7,271.2,190.3,273.7,188.6z"/>
			<path class="st10" d="M275.7,196.2c-0.1,0-0.3,0-0.4,0C275.5,196.2,275.6,196.2,275.7,196.2z"/>
		</g>
		<path class="st6" d="M284.4,190c0.1,1.4,1.3,2.5,2.7,2.4c0.2,0,0.5-0.1,0.7-0.2c0.1-0.6,0.1-1.2,0.1-1.9c0-1.2-0.2-2.2-0.4-3
			c-0.2-0.1-0.5-0.1-0.8-0.1C285.3,187.3,284.3,188.5,284.4,190z"/>
		<path class="st11" d="M285.9,187.1c0.4,0.5,0.1,1.5-0.7,2.1c-0.8,0.6-1.7,0.7-2,0.2c-0.4-0.5-0.1-1.5,0.7-2.1
			C284.6,186.6,285.5,186.6,285.9,187.1z"/>
		<path class="st11" d="M286.5,192.6c-0.1,0.4-0.5,0.6-1,0.5c-0.5-0.1-0.9-0.5-0.8-0.8c0.1-0.4,0.5-0.6,1-0.5
			C286.2,191.8,286.6,192.2,286.5,192.6z"/>
	</g>
	<path class="st1" d="M296.8,237.7c-7.3,4.1-14.2,11.7-10.5,20.8c0,0,3.6-9.7,13.8-12.3c10.2-2.6,14.3-1.8,15.4-3.8
		c0.2-2.6-0.9-5.1-1.9-7.3c-0.8-1.7-1-1.7-0.9-2.3C299.4,235.7,304.9,233.1,296.8,237.7z"/>
	<g>
		<path class="st12" d="M299,182.9c0,0-43.2,2.2-103.6,19.5l3.3,3.4c0,0,56-12.8,100.3-14.2V182.9z"/>
		<path class="st13" d="M298.9,182.9v6.1c-37.7,1.2-87.3,12.4-101.3,15.7l1.1,1.1c0,0,56-12.8,100.3-14.2L298.9,182.9
			C299,182.9,298.9,182.9,298.9,182.9z"/>
		<path class="st12" d="M302.1,191.7c0,0,3.1-1.1,5.3-1.1c0,0,0.7-2.5,0-4.6c0,0-4.6,0.1-7.6,2.2
			C296.9,190.3,302.1,191.7,302.1,191.7z"/>
		<path class="st14" d="M302.1,191.7c0,0,3.1-1.1,5.3-1.1c0,0,0.7-2.5,0-4.6c0,0-4.6,0.1-7.6,2.2
			C296.9,190.3,302.1,191.7,302.1,191.7z"/>
		<path class="st12" d="M301.1,209.2h-3.8c-0.6,0-1-0.5-1-1v-35.5c0-0.6,0.5-1,1-1h3.8c0.6,0,1,0.5,1,1v35.5
			C302.1,208.8,301.6,209.2,301.1,209.2z"/>
		<path class="st12" d="M301.1,209.2h-3.8c-0.6,0-1-0.5-1-1v-35.5c0-0.6,0.5-1,1-1h3.8c0.6,0,1,0.5,1,1v35.5
			C302.1,208.8,301.6,209.2,301.1,209.2z"/>
		<path class="st13" d="M300.4,197.1L300.4,197.1c-0.4,0-0.7-0.3-0.7-0.7v-22.2c0-0.4,0.3-0.7,0.7-0.7l0,0c0.4,0,0.7,0.3,0.7,0.7
			v22.2C301.1,196.8,300.8,197.1,300.4,197.1z"/>
		<path class="st14" d="M300.8,207.6H300c-1.4,0-2.5-1.1-2.5-2.5v-32.6c0-0.2,0.1-0.4,0.1-0.6c-0.8,0.4-1.3,1.2-1.3,2.2v32.6
			c0,1.4,1.1,2.5,2.5,2.5h0.9c1.2,0,2.1-0.8,2.4-1.9C301.6,207.5,301.3,207.6,300.8,207.6z"/>
		<path class="st13" d="M294.9,184.5c0,0-28.5,2.7-38.4,5c0,0,34.7-3.1,38.4-2.7V184.5z"/>
	</g>
</g>
</svg>
