<?xml version="1.0" encoding="utf-8"?>
<!-- Generator: Adobe Illustrator 25.0.0, SVG Export Plug-In . SVG Version: 6.00 Build 0)  -->
<!DOCTYPE svg PUBLIC "-//W3C//DTD SVG 1.1//EN" "http://www.w3.org/Graphics/SVG/1.1/DTD/svg11.dtd" [
	<!ENTITY ns_extend "http://ns.adobe.com/Extensibility/1.0/">
	<!ENTITY ns_ai "http://ns.adobe.com/AdobeIllustrator/10.0/">
	<!ENTITY ns_graphs "http://ns.adobe.com/Graphs/1.0/">
	<!ENTITY ns_vars "http://ns.adobe.com/Variables/1.0/">
	<!ENTITY ns_imrep "http://ns.adobe.com/ImageReplacement/1.0/">
	<!ENTITY ns_sfw "http://ns.adobe.com/SaveForWeb/1.0/">
	<!ENTITY ns_custom "http://ns.adobe.com/GenericCustomNamespace/1.0/">
	<!ENTITY ns_adobe_xpath "http://ns.adobe.com/XPath/1.0/">
]>
<svg version="1.1" id="Layer_1" xmlns:x="&ns_extend;" xmlns:i="&ns_ai;" xmlns:graph="&ns_graphs;"
	 xmlns="http://www.w3.org/2000/svg" xmlns:xlink="http://www.w3.org/1999/xlink" x="0px" y="0px" viewBox="0 0 450 450"
	 style="enable-background:new 0 0 450 450;" xml:space="preserve">
<style type="text/css">
	.st0{fill:#EDC4B0;}
	.st1{fill:#251F12;}
	.st2{fill:#383124;}
	.st3{opacity:0.5;fill:#D9A191;}
	.st4{opacity:0.3;fill:#B89584;}
	.st5{opacity:0.5;fill:#B89584;}
	.st6{fill:#0A0A0A;}
	.st7{fill:#E8E1D8;}
	.st8{fill:#4A2C00;}
	.st9{opacity:0.5;fill:#828F22;}
	.st10{fill:#5E4E46;}
	.st11{fill:#FFFFFF;}
	.st12{fill:#59382D;}
	.st13{opacity:0.3;fill:#59382D;}
	.st14{opacity:0.5;fill:#59382D;}
	.st15{fill:#C49B76;}
	.st16{fill:#D1A57E;}
	.st17{fill:#997D63;}
	.st18{fill:#828F22;}
	.st19{fill:url(#SVGID_1_);}
	.st20{fill:url(#SVGID_2_);}
	.st21{fill:#61300D;}
	.st22{fill:#472106;}
	.st23{fill:#7D441B;}
	.st24{fill:#D9A191;}
	.st25{fill:#B07666;}
	.st26{opacity:0.2;fill:#B89584;}
	.st27{fill:#69230B;}
	.st28{fill:#91462D;}
	.st29{fill:#E8E8E8;}
	.st30{opacity:0.2;fill:url(#SVGID_3_);}
	.st31{opacity:0.2;fill:url(#SVGID_4_);}
	.st32{fill:#9C6A3A;}
	.st33{opacity:0.5;fill:#9C6A3A;}
	.st34{fill:#B07945;}
	.st35{fill:#144A69;}
	.st36{fill:#1C6691;}
	.st37{opacity:0.3;}
	.st38{fill:#B89584;}
	.st39{fill:#1A1A1A;}
	.st40{fill:#55463F;}
	.st41{fill:#5C6914;}
	.st42{fill:#453F34;}
	.st43{opacity:0.5;fill:#1C6691;}
	.st44{fill:#A65735;}
	.st45{fill:#B86B49;}
	.st46{fill:#808080;}
	.st47{opacity:0.3;fill:#808080;}
	.st48{fill:#CCDAE8;}
	.st49{opacity:0.3;fill:#CCDAE8;}
	.st50{fill:#EBF1F7;}
	.st51{fill:#523217;}
	.st52{fill:#754E2B;}
	.st53{fill:#8C5B30;}
	.st54{opacity:0.5;fill:url(#SVGID_5_);}
	.st55{opacity:0.1;fill:#B89584;}
	.st56{opacity:0.2;fill:url(#SVGID_6_);}
	.st57{opacity:0.2;fill:url(#SVGID_7_);}
	.st58{fill:#8A5D33;}
	.st59{opacity:0.3;fill:#8A5D33;}
	.st60{opacity:0.2;fill:url(#SVGID_8_);}
	.st61{opacity:0.2;fill:url(#SVGID_9_);}
	.st62{fill:#141E69;}
	.st63{fill:#222F8F;}
	.st64{fill:#756157;}
	.st65{fill:#574840;}
	.st66{fill:#733C25;}
	.st67{fill:url(#SVGID_10_);}
	.st68{fill:#855E42;}
	.st69{fill:#543D32;}
	.st70{opacity:0.3;fill:#543D32;}
	.st71{fill:url(#SVGID_11_);}
	.st72{opacity:0.3;fill:#855E42;}
	.st73{fill:url(#SVGID_12_);}
	.st74{opacity:0.5;fill:#855E42;}
</style>
<metadata>
	<sfw  xmlns="&ns_sfw;">
		<slices></slices>
		<sliceSourceBounds  bottomLeftOrigin="true" height="785.7" width="759" x="28.7" y="-811.6"></sliceSourceBounds>
	</sfw>
</metadata>
<g>
	<path class="st0" d="M171.9,285c17.4,25.7,15.6,35.1,11.5,47.4c0,0,24.5,26,87.2,14.1c0,0-0.2-19.2,18.7-21.5
		C304.1,323.1,171.9,285,171.9,285z"/>
	<path class="st0" d="M162.7,269.9c2.1,3.6,7.8,12.5,12.5,20.1c15.2,24.7,10.3,35,10.3,35s3.1-13.1,21.1-8.3
		c26.5,7.1,45.5,8.3,45.5,8.3l-67.2-65.3L162.7,269.9z"/>
	<path class="st0" d="M171.6,279.4c13.2,4.5,41.4,28.8,45.7,31.6c4.3,2.9,11.6-9.6,8.8-15.8c-2.7-6.2-5-23.6-16.3-23.4
		C198.5,271.9,171.6,279.4,171.6,279.4z"/>
	<path class="st1" d="M188.7,286.4c0,5.9-5.5,18.7-5.5,18.7s-6.2-14.7-33-44.9c-10-11.3,10.2-0.5,10.2-0.5L188.7,286.4z"/>
	<path class="st0" d="M312.3,266.5c-0.1,0.6,0.5,3,1.3,4.7c1.8,3.9,4.2,8.8-2.1,13.9c0,0,4.2,7.1,0.3,10.5c-3.9,3.4-5.5,4.8-2.8,9.6
		c2.7,4.8-23,9.5-23,9.5l-60.7-34.8l-25.7-45.2l18.6-27.8l0.4-49.5l52.6,4.6l25.5-0.3c0,0,17.5,39.8,15.8,48.1
		c-1.7,8.4-6.5,11.3-5.1,16.8c1.4,5.5,10.9,20.1,14.5,24.8C325.5,256.2,329.4,262.6,312.3,266.5z"/>
	<g>
		<path class="st1" d="M277.6,110.1c-41.2-19.7-70.9,3.1-99.3,9.9c-28.4,6.8-47.7,31-44.4,41.6c0,0-8.2,8.2-8.5,23.6
			c-0.2,8.3,1.5,18.6,5.2,29.6c3.9,0.2,7.8,0.6,11.7,0.9c10.1,0.9,20.3,0.8,30.4,1.4c11.6,0.7,5.9-0.5,17.3,1.6
			c4.7,0.8-8.4-16.4-3.7-15.4c1,0.2,17.4,1.7,18.4,2c3.9-7.9,17.4,1.4,23.2-3.5c9.6-7.9-0.8-36.8,0.9-36.6
			c2.1,0.3,50.3,17.8,69.8,0.4C298.6,165.7,318.8,129.8,277.6,110.1z"/>
		<path class="st1" d="M219,248.8c0.3-0.1,0.7-0.1,1,0C220.6,249,219.8,248.9,219,248.8z"/>
	</g>
	<path class="st1" d="M295.1,161.5c0,0,0.3-1.7,0.5-4.8c0.2-3.1,0.3-7.5-0.2-12.7c-0.5-5.2-1.5-11.4-3.9-17.5
		c-1.2-3.1-2.7-6.1-4.7-8.9c-1.9-2.9-4.3-5.5-7-7.6c-2.7-2.3-5.8-3.9-8.9-5.3c-3.2-1.3-6.5-2.2-9.8-2.7c-3.3-0.6-6.5-0.7-9.5-0.8
		c-3.1,0.1-5.9,0.1-8.6,0.4c-2.7,0.2-5.1,0.6-7.2,1c-2.2,0.3-4,0.7-5.5,1.1c-3,0.7-4.8,1.1-4.8,1.1s1.7-0.4,4.8-1.2
		c1.5-0.4,3.4-0.9,5.5-1.2c2.1-0.4,4.5-0.9,7.2-1.2c2.7-0.4,5.6-0.5,8.7-0.7c3.1,0,6.3,0.1,9.7,0.6c3.4,0.4,6.8,1.3,10.1,2.5
		c3.3,1.4,6.6,3,9.4,5.3c2.9,2.2,5.5,4.9,7.6,7.8c2.2,2.9,3.8,6,5.1,9.2c2.7,6.3,3.9,12.6,4.6,18c0.6,5.4,0.6,10,0.5,13.1
		c-0.1,3.2-0.4,5-0.4,5L295.1,161.5z"/>
	<path class="st3" d="M311.7,280c-15.2,2-24.3,6-22.5,6.5c1.8,0.5,3.2,2.3,6.9,3.6c3.5,1.3,11.4,7.3,16.4,4.7
		c1.8-2.6,0.4-6.5-0.5-8.5c-0.5-0.7-0.8-1.2-0.8-1.2c0.3-0.2,0.5-0.3,0.8-0.5c2.5-2.2,3.4-4.4,3.5-6.4
		C313.8,279,311.7,280,311.7,280z"/>
	<path class="st1" d="M288.7,165.1c0,0,0.1-0.1,0.3-0.2C288.9,165,288.8,165.2,288.7,165.1c0.1-0.1,0.1-0.1,0.2-0.3
		c0.2-0.5,0.4-1.8,0.5-3.4c0-3.3-0.5-8.2-2-13.9c-1.4-5.7-3.8-12.2-7.2-18.7c-3.5-6.5-8.2-12.9-14.2-17.9c-3-2.5-6.4-4.6-9.9-6.1
		c-3.5-1.6-7.2-2.6-10.9-3.1c-7.3-1-14.3-0.1-20,1.4c-5.8,1.5-10.4,3.4-13.5,4.8c-3.2,1.4-4.9,2.4-4.9,2.4s1.7-1,4.9-2.5
		c3.1-1.5,7.7-3.5,13.5-5.2c5.7-1.6,12.8-2.8,20.3-1.9c3.7,0.4,7.6,1.3,11.2,2.9c3.7,1.5,7.2,3.6,10.4,6.1
		c6.4,5,11.4,11.5,15.1,18.1c3.7,6.6,6.3,13.2,7.9,19c1.6,5.8,2.4,10.9,2.4,14.5c0,1.8-0.1,3.3-0.6,4.5c-0.1,0.3-0.3,0.6-0.4,0.8
		c-0.2,0.3-0.6,0.7-0.8,0.8c-0.2,0.1-0.3,0.2-0.3,0.2L288.7,165.1z"/>
	<path class="st1" d="M217.1,156.9c0,0,0.2-0.4,0.3-1c0-0.2,0-0.4,0-0.8c0-0.4,0-0.9-0.1-1.5c-0.3-2.3-1.2-5.8-2.9-9.6
		c-1.7-3.9-4.1-8.3-7.4-12.5c-1.6-2.1-3.5-4.2-5.5-6.1c-2-1.9-4.4-3.6-6.8-5c-2.4-1.5-5.1-2.4-7.8-3.1c-2.7-0.6-5.5-0.7-8.2-0.4
		c-1.3,0.2-2.6,0.4-3.9,0.7c-1.2,0.4-2.5,0.7-3.6,1.2c-2.3,0.9-4.3,2.1-6.2,3.2c-1.8,1.3-3.5,2.3-4.8,3.5c-1.3,1.1-2.6,2.1-3.5,3
		c-1.8,1.8-2.9,2.8-2.9,2.8s1-1,2.8-2.9c0.9-0.9,2.1-1.9,3.4-3.1c1.3-1.2,3-2.3,4.7-3.7c1.9-1.2,3.9-2.4,6.2-3.4
		c1.1-0.6,2.4-0.9,3.6-1.4c1.3-0.4,2.6-0.6,4-0.9c2.7-0.3,5.7-0.4,8.5,0.2c2.9,0.6,5.7,1.5,8.3,2.9c2.6,1.4,5.1,3.1,7.3,5
		c2.2,1.9,4.2,4,6,6.1c3.6,4.3,6.2,8.8,8.1,12.8c1.9,4,3,7.6,3.5,10.3c0.1,0.7,0.1,1.3,0.2,1.9c0,0.6-0.1,1.3-0.1,1.7
		c-0.2,0.7-0.3,1-0.3,1L217.1,156.9z"/>
	<path class="st1" d="M200.6,144.5c0,0,0.2-0.9,0.6-2.5c0.2-0.8,0.2-1.7,0.3-2.7c0.2-1,0-2.3,0-3.6c-0.1-1.3-0.3-2.8-0.6-4.3
		c-0.4-1.5-0.8-3.1-1.5-4.7c-0.3-0.8-0.7-1.6-1.1-2.3c-0.4-0.7-0.8-1.6-1.3-2.3c-0.5-0.7-1-1.4-1.6-2.1l-2-1.9
		c-1.4-1-2.9-2.1-4.6-2.6l-1.2-0.5c-0.4-0.1-0.9-0.1-1.3-0.2c-0.9-0.1-1.7-0.3-2.6-0.3c-1.7,0.2-3.4,0-4.9,0.6
		c-1.5,0.4-3,0.7-4.3,1.4c-1.3,0.6-2.5,1-3.5,1.6c-1,0.6-1.8,1.1-2.5,1.5c-1.4,0.9-2.2,1.3-2.2,1.3s0.8-0.5,2.1-1.5
		c0.7-0.5,1.5-1,2.5-1.7c1-0.6,2.2-1.1,3.4-1.8c1.2-0.7,2.7-1.1,4.3-1.6c1.5-0.6,3.3-0.6,5.1-0.9c0.9-0.1,1.8,0.1,2.8,0.2
		c0.5,0.1,0.9,0.1,1.4,0.2l1.4,0.4c1.9,0.5,3.6,1.5,5.2,2.6l2.2,1.9c0.7,0.7,1.3,1.5,1.9,2.2c0.7,0.7,1.1,1.6,1.6,2.4
		c0.5,0.8,1,1.6,1.3,2.5c0.8,1.6,1.4,3.3,1.8,4.9c0.4,1.6,0.7,3.2,0.9,4.6c0.1,1.5,0.3,2.8,0.2,4c-0.1,1.2-0.1,2.4-0.2,3.2
		c-0.3,1.6-0.5,2.5-0.5,2.5L200.6,144.5z"/>
	<path class="st1" d="M254.9,140.4c0,0-0.8-1.3-2.1-3.4c-0.3-0.5-0.7-1.2-1.1-1.8c-0.4-0.6-0.9-1.3-1.4-2c-1-1.4-2.1-3-3.6-4.6
		c-1.4-1.7-3-3.4-4.8-5.1c-1.7-1.8-3.8-3.4-5.9-5.1c-1-0.9-2.3-1.5-3.4-2.3c-1.2-0.8-2.3-1.6-3.6-2.2c-1.3-0.6-2.5-1.3-3.8-1.9
		l-4.1-1.6c-1.3-0.5-2.8-0.7-4.2-1.1c-0.7-0.2-1.4-0.4-2.1-0.5l-2.1-0.2c-2.8-0.5-5.6-0.2-8.4-0.1c-2.7,0.6-5.3,0.9-7.6,1.9
		c-1.2,0.5-2.4,0.7-3.4,1.4c-1,0.6-2,1.1-3,1.7c-0.5,0.3-0.9,0.5-1.4,0.8c-0.4,0.3-0.8,0.6-1.2,0.9c-0.8,0.6-1.5,1.2-2.2,1.8
		c-1.5,1-2.5,2.2-3.4,3.2c-1.8,1.9-2.8,2.9-2.8,2.9s1-1.1,2.7-3c0.9-1,1.9-2.2,3.3-3.3c0.7-0.6,1.4-1.2,2.2-1.8
		c0.4-0.3,0.8-0.7,1.2-1c0.5-0.3,0.9-0.6,1.4-0.8c1-0.6,1.9-1.2,3-1.8c1-0.7,2.2-1,3.4-1.5c2.3-1.1,5-1.5,7.7-2.2
		c2.8-0.2,5.7-0.6,8.6-0.2l2.2,0.2c0.7,0.1,1.5,0.3,2.2,0.4c1.4,0.4,3,0.5,4.4,1l4.2,1.5c1.4,0.6,2.7,1.3,4,1.9
		c1.4,0.6,2.6,1.4,3.8,2.1c1.2,0.8,2.5,1.4,3.6,2.3c2.3,1.7,4.5,3.3,6.3,5c2,1.7,3.6,3.4,5.2,5.1c1.6,1.6,2.8,3.3,4,4.7
		c1.2,1.4,2.1,2.7,2.8,3.8c1.4,2.1,2.2,3.4,2.2,3.4L254.9,140.4z"/>
	<path class="st1" d="M175.3,140.4c0,0-1.1-2-3.6-4.6c-1.2-1.2-2.7-2.7-4.6-3.9c-0.9-0.6-1.9-1.1-2.9-1.7c-1.1-0.4-2.1-0.9-3.3-1.1
		c-0.6-0.1-1.1-0.3-1.7-0.4l-1.7-0.1c-1.2-0.2-2.3,0.1-3.4,0.2c-1.1,0.1-2.1,0.5-3.1,0.8c-1,0.2-1.9,0.8-2.7,1.1
		c-0.8,0.4-1.6,0.7-2.2,1.1c-0.6,0.4-1.2,0.8-1.6,1c-0.9,0.6-1.4,0.9-1.4,0.9s0.5-0.4,1.3-1c0.4-0.3,0.9-0.7,1.5-1.2
		c0.6-0.5,1.3-0.9,2.1-1.3c0.8-0.4,1.6-1.1,2.7-1.4c1-0.3,2.1-0.8,3.2-1.1c1.2-0.1,2.4-0.6,3.6-0.5l1.9,0c0.6,0,1.3,0.2,1.9,0.3
		c1.3,0.1,2.5,0.6,3.7,1c1.2,0.5,2.3,1,3.3,1.6c2.1,1.2,3.9,2.6,5.3,3.8c1.4,1.3,2.5,2.5,3.2,3.3c0.4,0.4,0.7,0.8,0.8,1
		c0.2,0.2,0.3,0.4,0.3,0.4L175.3,140.4z"/>
	<path class="st1" d="M174.9,125.1c0,0-0.7,0.1-2,0.3c-1.2,0.2-3,0.5-5.1,1c-4.2,1-9.8,2.5-14.9,5c-5.2,2.4-9.9,6.1-11.8,10
		c-0.5,0.9-0.9,1.9-1.1,2.7c-0.3,0.8-0.4,1.6-0.5,2.2c-0.1,1.3-0.1,2-0.1,2s-0.1-0.7,0-2c0.1-0.6,0.1-1.4,0.3-2.3
		c0.2-0.9,0.5-1.8,1-2.9c1.8-4.1,6.4-8.3,11.5-11.2c5.2-2.9,10.8-4.9,15-6.2c2.1-0.6,3.9-1.1,5.2-1.4c1.2-0.3,1.9-0.4,1.9-0.4
		L174.9,125.1z"/>
	<path class="st1" d="M220.1,120.7c0,0-0.7-0.5-2-1.3c-0.6-0.3-1.3-0.7-2.2-1.1c-0.9-0.4-2-0.8-3.1-1.2c-2.4-0.8-5.2-1.6-8.3-2.2
		c-1.5-0.3-3.2-0.5-4.8-0.7c-1.7-0.1-3.3-0.3-5-0.2c-1.7,0-3.4,0.1-5,0.2c-1.7,0.1-3.3,0.5-4.8,0.7c-1.5,0.5-3,0.7-4.4,1.3
		c-0.7,0.3-1.3,0.5-2,0.8c-0.6,0.3-1.2,0.7-1.7,1c-1.1,0.6-2.1,1.3-2.9,2c-0.8,0.6-1.5,1.2-2,1.8c-1,1.1-1.6,1.8-1.6,1.8
		s0.5-0.7,1.5-1.9c0.4-0.6,1.1-1.3,1.9-2c0.8-0.7,1.7-1.5,2.8-2.2c0.5-0.3,1.1-0.7,1.7-1.1c0.6-0.3,1.3-0.6,2-0.9
		c1.3-0.7,2.9-1.1,4.4-1.6c1.6-0.4,3.2-0.8,4.9-1c1.7-0.3,3.4-0.5,5.2-0.5c1.7-0.2,3.5,0,5.2-0.1c1.7,0.1,3.4,0.2,5,0.4
		c3.2,0.4,6.2,1,8.8,1.8c1.3,0.4,2.4,0.8,3.4,1.1c1,0.5,1.9,0.9,2.7,1.2c1.3,0.8,2,1.2,2,1.2L220.1,120.7z"/>
	<path class="st1" d="M148.9,148.4c-0.1,0-0.2,0.1-1.2,0c-0.5,0-0.7-0.1-1.2-0.2c-0.4-0.1-0.9-0.1-1.4-0.2c-2-0.3-4.6-0.5-7.1,0.3
		c-0.6,0.2-1.2,0.4-1.8,0.8c-0.6,0.3-1.1,0.6-1.6,1c-1,0.8-1.8,1.6-2.4,2.5c-0.7,0.8-1,1.6-1.3,2.1c-0.3,0.5-0.5,0.8-0.5,0.8
		s0.1-0.3,0.3-0.9c0.2-0.6,0.5-1.4,1-2.3c0.5-0.9,1.2-2,2.1-2.9c0.5-0.5,1-1,1.6-1.4c0.6-0.5,1.2-0.8,1.9-1.1
		c2.7-1.3,5.7-1.5,7.8-1.5c0.5,0,1,0,1.4,0c0.4,0,0.9,0,1,0c0.2,0,0.8-0.1,0.7-0.1L148.9,148.4z"/>
	<path class="st1" d="M298.6,165.7c-1.5,1.2-1.6,3-1.6,3s-0.7-1.2-1.2-0.3c-0.5,0.8-2,1.3-2.3,1.6c-0.3,0.3,0,0.8,0,0.8
		s-2-0.2-2.7,0.4c-0.6,0.6-0.4,1.1-0.4,1.1s-0.1-0.5-1.1-0.3c-1,0.2-0.2,0.9-0.2,0.9s-1.3-0.8-1.9-0.6c-0.6,0.2-0.5,0.9-0.5,0.9
		s-1.6-1.2-2.9-0.2c-0.5,0.4-0.6,0.9-0.6,0.9s-1.4-0.9-2.3-0.8c-0.9,0.1,0.3-2,0.6-2.2c0.3-0.2-1-1.1,3.1-1.5
		C288.8,168.8,298.6,165.7,298.6,165.7z"/>
	<path class="st1" d="M230.6,165.9c11.5,3.3,14.8,6.9,14.8,6.9s2-2.6,4.1-0.7c2.2,1.9,5.3-0.4,7.3,0.9c2.1,1.3,3.4,2.2,3.4,2.2
		s0.7-1.7,2.2-0.6c0,0,0-2.2,2.4-0.1c0,0,2-1.8,5.5-0.1c3.4,1.7,4.9-0.6,6.4,0.4c0,0,1.3-1.7,3.1,0.5c0,0-1.8-2.2,1.1-2.3
		c2.9-0.1-0.4-5-3.8-5c-3.4,0-18,1.4-19.6,1.8C255.9,170.2,230.6,165.9,230.6,165.9z"/>
	<path class="st1" d="M229.2,167.1c6.6,4.3,7.1,9.3,8.5,10.7c4,4,2.7,7.5,4.8,11.8c2.1,4.4,4,13.1,1,17c-2.3,2.9-13.7-1.4-13.7-1.4
		l-6.1-20.9L229.2,167.1z"/>
	<path class="st1" d="M208.5,280.4c-5.3,21.9,5.2,32.4,28.2,40c23,7.6,61.2,16.7,71.5,9.3c10.3-7.4,11.4-18.7,0.7-24.5
		c0,0-14,7-41.6-4.3c-24.9-10.2-40.8-27.9-47.4-52.1c-0.1,0.1-0.9,0.2-1,0c-0.6-1.6-5.5,1.5-6.8,1.1c-1.2-0.4-1.5,1.7-1.5,1.7
		s-2.4-1.2-4.2,2.8v0C209.4,260.7,211.2,269.3,208.5,280.4z"/>
	<path class="st1" d="M206.6,254.4c1.7-4.1,4.2-2.8,4.2-2.8s1.2-1.9,4.5-1.8c1.3,0,4.9,0,4.7-0.9c-5.8-25.4,12.6-32.5,22.1-40.5
		c9.2-7.6-13.2-40.6-13.4-42.9c-12.9-6.4-30.6-7.7-50.8-8c-31.1-0.5-44,4.3-44,4.3s-7.4,8.2-8.5,23.6c-2,27.3,2.8,41.9,17.5,65.7
		c4.1,6.6,12.1,14.2,17.5,19.9c5.8,6.1,15.6,11.8,25.8,14c0,0-24.6-38.9-13-45.2c11.6-6.3,25.4,2.1,25.4,2.1
		C200.1,244.1,203.9,248.2,206.6,254.4L206.6,254.4z"/>
	<path class="st0" d="M235,171.3c0,0-0.2-0.2-0.4-0.5c-0.3-0.3-0.8-0.8-1.5-1.3c-1.4-1.1-3.5-2.4-6.2-3.6c-2.8-1.2-6.1-2.4-9.7-3.4
		c-3.7-1-7.6-1.8-11.6-2.5c-4-0.6-8.1-1.2-11.9-1.5c-3.8-0.4-7.4-0.5-10.4-0.7c-6.1-0.2-10.2-0.3-10.2-0.3s4.1,0,10.2,0.1
		c3.1,0.2,6.6,0.1,10.4,0.5c3.8,0.2,7.9,0.7,11.9,1.2c4,0.6,8.1,1.3,11.8,2.3c3.7,0.9,7.1,2.1,10,3.3c2.8,1.2,5.1,2.6,6.6,3.7
		c0.7,0.6,1.3,1,1.7,1.4c0.4,0.4,0.5,0.6,0.5,0.6L235,171.3z"/>
	<path class="st1" d="M296.9,162.9c0,0,0.4-0.8,1-2.1c0.2-0.6,0.5-1.4,0.8-2.3c0.3-0.9,0.6-2,0.9-3.2c0.2-1.2,0.6-2.5,0.7-3.9
		c0.2-1.4,0.4-2.9,0.5-4.4c0.1-1.5,0.1-3.1,0.2-4.7c-0.1-1.6-0.1-3.3-0.3-4.9c-0.1-1.6-0.4-3.3-0.6-4.9c-0.3-1.6-0.7-3.1-1.1-4.6
		c-0.5-1.5-0.9-2.9-1.5-4.2c-0.3-0.7-0.5-1.3-0.8-1.9c-0.3-0.6-0.6-1.2-0.9-1.7c-0.6-1.1-1.2-2.1-1.8-2.9c-0.6-0.8-1.1-1.5-1.6-2
		c-1-1.1-1.6-1.7-1.6-1.7s0.6,0.6,1.7,1.6c0.6,0.5,1.1,1.2,1.7,2c0.7,0.8,1.4,1.7,2,2.8c0.3,0.5,0.7,1.1,1,1.7
		c0.3,0.6,0.6,1.2,0.9,1.9c0.7,1.3,1.1,2.7,1.7,4.2c0.5,1.5,1,3.1,1.3,4.7c0.4,1.6,0.7,3.3,0.9,4.9c0.3,1.7,0.4,3.3,0.5,5
		c0.1,1.7,0.2,3.3,0.1,4.9c0,1.6-0.1,3.1-0.3,4.6c-0.1,1.5-0.4,2.8-0.5,4.1c-0.2,1.3-0.5,2.4-0.7,3.4c-0.3,1-0.6,1.9-0.8,2.7
		c-0.6,1.3-0.9,2.1-0.9,2.1L296.9,162.9z"/>
	<path class="st1" d="M297.4,138.6c0,0,0-0.9,0.1-2.4c0-0.7-0.1-1.6-0.2-2.6c-0.2-1-0.4-2.2-0.7-3.4c-0.4-1.2-0.7-2.6-1.3-3.9
		c-0.5-1.4-1.2-2.8-2-4.2c-0.8-1.4-1.6-2.9-2.7-4.2l-1.6-2.1l-1.7-1.9c-1.2-1.3-2.5-2.5-3.8-3.6c-1.4-1-2.7-2.1-4.1-2.9
		c-1.4-0.9-2.8-1.5-4.2-2.1c-1.4-0.7-2.8-0.9-4-1.4c-1.3-0.4-2.5-0.5-3.5-0.7c-1.1-0.2-2-0.2-2.8-0.3c-1.6-0.1-2.4-0.1-2.4-0.1
		s0.9,0,2.4,0c0.8,0,1.7-0.1,2.8,0.1c1.1,0.2,2.3,0.2,3.6,0.5c1.3,0.4,2.7,0.6,4.2,1.2c1.4,0.6,3,1.1,4.4,2c1.5,0.7,2.9,1.8,4.4,2.8
		c1.4,1.1,2.8,2.2,4.1,3.5l1.9,1.9l1.7,2.1c1.1,1.4,2.1,2.9,3,4.3c0.8,1.5,1.7,2.9,2.3,4.3c0.7,1.4,1.1,2.8,1.6,4.1
		c0.4,1.3,0.7,2.6,0.9,3.7c0.2,1.2,0.3,2.2,0.4,3c0,1.6,0,2.4,0,2.4L297.4,138.6z"/>
	<g>
		<path class="st42" d="M275.4,148.4c0,0-0.1-0.7-0.4-2c-0.2-1.3-0.7-3.1-1.1-5.2c-0.3-1.1-0.6-2.2-0.9-3.4
			c-0.4-1.2-0.8-2.4-1.3-3.7c-0.3-0.6-0.5-1.3-0.8-1.9c-0.3-0.6-0.6-1.3-0.9-1.9c-0.6-1.3-1.3-2.5-2.1-3.7c-0.8-1.2-1.6-2.3-2.6-3.4
			c-1-1-1.9-2.1-2.9-2.9c-1-0.9-2.1-1.6-3-2.4c-1.1-0.6-2-1.3-3-1.7c-1.9-1-3.6-1.7-4.8-2.1c-1.2-0.4-1.9-0.7-1.9-0.7s0.7,0.1,2,0.3
			c0.7,0.1,1.4,0.3,2.3,0.5c0.9,0.2,1.9,0.5,2.9,0.9c1.1,0.4,2.1,1,3.3,1.5c1.1,0.7,2.3,1.3,3.4,2.3c1.1,0.8,2.2,1.9,3.2,3
			c1,1.1,2,2.3,2.8,3.6c0.8,1.3,1.6,2.6,2.2,3.9c0.7,1.3,1.2,2.7,1.6,4.1c0.5,1.3,0.7,2.7,1.1,3.9c0.2,1.3,0.4,2.5,0.6,3.6
			c0.3,2.2,0.4,4.1,0.4,5.4C275.4,147.7,275.4,148.4,275.4,148.4z"/>
		<path class="st42" d="M212.8,117c0,0,0.2,0.1,0.7,0.3c0.5,0.2,1.1,0.6,1.9,1.2c1.5,1.2,3.3,3.3,5,6.2c1.7,2.8,3.4,6.2,5.2,9.8
			c1.8,3.6,3.7,7.5,5.9,11.1c2.1,3.7,4.5,7.2,7.2,10.3c1.3,1.5,2.6,2.9,4,4.2c1.3,1.2,2.7,2.3,4,3.3c1.3,0.9,2.5,1.8,3.6,2.4
			c1.1,0.7,2.1,1.2,3,1.6c1.7,0.8,2.7,1.3,2.7,1.3s-1-0.3-2.8-0.9c-0.9-0.4-2-0.7-3.2-1.3c-1.2-0.5-2.5-1.3-3.9-2.1
			c-1.4-0.9-2.8-1.9-4.3-3.1c-1.4-1.2-2.9-2.6-4.3-4.1c-2.8-3.1-5.4-6.6-7.6-10.4c-2.2-3.8-4-7.7-5.8-11.4c-1.7-3.7-3.1-7.2-4.6-10
			c-1.5-2.9-2.9-5.1-4.3-6.4c-0.7-0.6-1.2-1.1-1.7-1.4C213,117.2,212.8,117,212.8,117z"/>
		<path class="st42" d="M240.1,117c0,0,3.4,1.2,8,4.1c1.1,0.8,2.4,1.5,3.6,2.5c1.3,0.9,2.6,1.9,3.8,3.1c1.3,1.1,2.5,2.4,3.8,3.7
			c1.1,1.4,2.4,2.7,3.4,4.2c1,1.5,2.1,3,2.9,4.6c0.4,0.8,0.9,1.6,1.3,2.3c0.3,0.8,0.7,1.6,1,2.4c0.3,0.8,0.7,1.6,0.9,2.3
			c0.2,0.8,0.4,1.6,0.7,2.3c0.2,0.8,0.4,1.5,0.6,2.2c0.2,0.7,0.2,1.4,0.4,2.1c0.2,1.3,0.4,2.6,0.5,3.7c0,1.1,0.1,2.1,0.1,2.9
			c0,1.6,0,2.5,0,2.5s-0.2-0.9-0.4-2.4c-0.1-0.8-0.3-1.7-0.4-2.8c-0.2-1.1-0.6-2.2-0.9-3.5c-0.2-0.6-0.3-1.3-0.5-2
			c-0.2-0.7-0.5-1.4-0.8-2.1c-0.5-1.4-1.1-2.9-1.8-4.4c-0.3-0.7-0.7-1.5-1.1-2.3c-0.4-0.7-0.9-1.5-1.3-2.2c-0.8-1.5-1.9-2.9-2.9-4.4
			c-1-1.5-2.2-2.8-3.2-4.1c-1.2-1.2-2.3-2.6-3.5-3.7c-1.2-1.2-2.3-2.3-3.5-3.3c-1.1-1-2.3-1.9-3.3-2.7c-1.1-0.8-2-1.5-2.9-2.2
			c-0.9-0.6-1.7-1.2-2.3-1.6C240.9,117.5,240.1,117,240.1,117z"/>
		<path class="st42" d="M252.6,120.7c0,0,2.2,0.9,5,3c1.4,1,3,2.4,4.5,3.9c1.5,1.6,3.1,3.4,4.4,5.3c0.7,1,1.2,2,1.8,3
			c0.6,1,1,2.1,1.5,3c0.5,1,0.8,2,1.2,3c0.4,0.9,0.6,1.9,0.8,2.7c0.5,1.7,0.6,3.2,0.8,4.2c0.1,1,0.2,1.6,0.2,1.6s-0.2-0.5-0.6-1.5
			c-0.2-0.5-0.4-1-0.6-1.7c-0.2-0.7-0.6-1.4-0.9-2.2c-0.3-0.8-0.7-1.7-1.1-2.5c-0.4-0.9-0.8-1.8-1.4-2.7c-1-1.9-2.1-3.8-3.4-5.7
			c-1.2-1.9-2.7-3.6-4-5.3c-1.4-1.6-2.7-3.1-4-4.3C254.4,122.1,252.6,120.7,252.6,120.7z"/>
		<path class="st42" d="M285.2,166c0,0,0.2-0.3,0.5-0.8c0.3-0.5,0.7-1.4,1-2.4c0.3-1.1,0.6-2.4,0.8-4c0.2-1.6,0.3-3.4,0.4-5.3
			c0.1-3.9-0.3-8.5-1.4-13.2c-0.5-2.4-1.2-4.8-2.1-7.2c-0.9-2.4-2-4.7-3.3-6.9c-1.3-2.2-2.8-4.3-4.5-6.2c-1.7-1.8-3.6-3.5-5.6-4.8
			c-2-1.4-4-2.4-6.1-3.3c-2-0.8-4.1-1.5-6-1.9c-0.9-0.3-1.9-0.4-2.7-0.5c-0.9-0.1-1.7-0.3-2.5-0.4c-1.6-0.1-3-0.3-4.1-0.3
			c-2.3,0-3.6-0.1-3.6-0.1s1.3-0.1,3.6-0.3c1.2-0.1,2.6,0,4.2-0.1c1.6,0.1,3.5,0.1,5.4,0.5c2,0.3,4.1,0.9,6.3,1.6
			c2.2,0.8,4.4,1.8,6.5,3.2c2.1,1.4,4.1,3.1,6,5c1.8,1.9,3.4,4.1,4.9,6.4c1.3,2.4,2.5,4.8,3.3,7.3c0.9,2.5,1.6,5,2,7.5
			c1,4.9,1,9.6,0.8,13.6c-0.3,4-1.1,7.3-2,9.4c-0.4,1.1-0.9,1.9-1.3,2.4C285.4,165.8,285.2,166,285.2,166z"/>
		<path class="st42" d="M278.2,117c0,0,0.5,0.4,1.4,1.1c0.8,0.8,2,1.8,3.2,3.4c0.6,0.8,1.2,1.6,1.7,2.6c0.6,0.9,1.1,2,1.6,3.1
			c1,2.2,1.8,4.6,2.4,7.1c0.2,1.3,0.6,2.5,0.7,3.7c0.2,1.2,0.4,2.5,0.4,3.7c0.2,2.4,0.2,4.6,0.1,6.5c0,1.9-0.4,3.5-0.5,4.6
			c-0.1,1.1-0.3,1.7-0.3,1.7s-0.1-0.6-0.1-1.7c-0.1-1.1-0.1-2.7-0.3-4.5c-0.1-0.9-0.2-1.9-0.3-3c-0.1-1.1-0.3-2.2-0.4-3.3
			c-0.1-1.2-0.4-2.3-0.6-3.5c-0.2-1.2-0.5-2.4-0.7-3.6c-0.5-2.4-1.3-4.7-2.1-6.9c-0.4-1.1-0.8-2.1-1.3-3.1c-0.4-1-0.9-1.8-1.4-2.7
			c-0.9-1.6-1.8-2.9-2.5-3.8C278.6,117.5,278.2,117,278.2,117z"/>
		<path class="st42" d="M216.4,112.3c0,0,1.1,0.1,3.1,0.3c2,0.3,4.8,0.7,8.1,1.5c1.6,0.5,3.5,0.9,5.3,1.6c1.9,0.6,3.8,1.4,5.8,2.3
			c2,0.9,3.9,1.9,5.9,3c1,0.6,2,1.1,2.9,1.7c1,0.6,1.9,1.3,2.9,1.9c1.9,1.3,3.6,2.9,5.3,4.3c1.6,1.6,3.3,3.1,4.6,4.8
			c0.7,0.8,1.4,1.6,2,2.5c0.6,0.9,1.1,1.7,1.7,2.5c1.2,1.6,1.9,3.4,2.7,4.9c0.8,1.5,1.2,3.1,1.8,4.3c0.5,1.3,0.8,2.5,1,3.5
			c0.4,1.9,0.7,3,0.7,3s-0.4-1.1-1.1-2.9c-0.3-0.9-0.7-2.1-1.3-3.3c-0.7-1.2-1.2-2.7-2.1-4.1c-0.9-1.4-1.7-3.1-2.9-4.5
			c-1.1-1.5-2.4-3.1-3.8-4.7c-1.3-1.6-3-3-4.6-4.5c-1.7-1.4-3.4-2.9-5.3-4.1c-0.9-0.6-1.8-1.3-2.7-1.9c-1-0.6-1.9-1.2-2.8-1.7
			c-1.9-1.1-3.8-2.1-5.7-3c-1.9-0.9-3.7-1.8-5.5-2.5c-1.8-0.8-3.5-1.3-5.1-1.9c-1.6-0.5-3.1-1-4.4-1.4c-1.3-0.3-2.5-0.6-3.5-0.9
			C217.5,112.6,216.4,112.3,216.4,112.3z"/>
		<path class="st42" d="M203.2,120.7c0,0,0.7,0.3,2,1c0.5,0.4,1.3,1,2,1.6c0.7,0.7,1.5,1.5,2.2,2.5c1.6,1.9,3.1,4.2,4.7,6.8
			c1.6,2.6,3.1,5.4,4.8,8.1c1.6,2.8,3.2,5.5,4.8,8c0.8,1.2,1.6,2.4,2.4,3.5c0.8,1.1,1.6,2.1,2.4,3c0.8,0.9,1.5,1.7,2.2,2.3
			c0.7,0.7,1.3,1.3,1.9,1.7c1.1,0.9,1.7,1.4,1.7,1.4s-0.7-0.4-2-1c-0.6-0.3-1.3-0.8-2.1-1.4c-0.8-0.6-1.7-1.2-2.6-2.1
			c-0.9-0.8-1.8-1.8-2.7-2.8c-1-1-1.8-2.2-2.8-3.4c-1.8-2.4-3.5-5.2-5.1-8c-1.6-2.8-3.1-5.6-4.5-8.2c-0.8-1.3-1.4-2.6-2.1-3.8
			c-0.7-1.2-1.3-2.3-2-3.3c-0.6-1-1.3-1.8-1.9-2.6c-0.6-0.7-1.2-1.3-1.7-1.8C203.8,121.2,203.2,120.7,203.2,120.7z"/>
		<path class="st42" d="M201.5,127.3c0,0,0.8,1.8,2.1,4.4c1.2,2.6,3,6.1,4.8,9.5c0.9,1.7,1.9,3.3,2.9,4.9c1,1.5,1.9,2.9,2.8,4
			c0.4,0.6,0.9,1,1.3,1.5c0.4,0.5,0.7,0.8,1,1.1c0.6,0.6,0.9,1,0.9,1s-0.4-0.3-1.1-0.8c-0.4-0.2-0.8-0.5-1.2-0.9
			c-0.4-0.4-1-0.8-1.5-1.4c-1-1.1-2.2-2.4-3.2-3.9c-0.5-0.8-1.1-1.5-1.6-2.4c-0.5-0.8-1-1.7-1.5-2.5c-1.9-3.4-3.4-7.1-4.3-9.9
			C201.9,129.2,201.5,127.3,201.5,127.3z"/>
		<path class="st42" d="M230.6,131c0,0,0.6,0.2,1.6,0.7c0.9,0.6,2.3,1.3,3.9,2.5c3.1,2.2,6.9,5.6,10.1,9.6c1.6,2,3.1,4.1,4.2,6.2
			c1.2,2.1,2.1,4.1,2.7,5.9c0.3,0.9,0.5,1.8,0.7,2.5c0.2,0.7,0.3,1.4,0.4,2c0.2,1.1,0.3,1.7,0.3,1.7s-0.2-0.6-0.6-1.6
			c-0.2-0.5-0.4-1.1-0.7-1.8c-0.3-0.7-0.7-1.4-1.1-2.3c-0.4-0.8-0.9-1.7-1.4-2.6c-0.5-0.9-1.2-1.8-1.7-2.8c-1.3-1.9-2.7-3.9-4.3-5.8
			c-1.5-1.9-3.2-3.8-4.8-5.5c-1.6-1.7-3.1-3.2-4.5-4.5c-1.4-1.3-2.5-2.3-3.3-3C231.1,131.3,230.6,131,230.6,131z"/>
		<path class="st42" d="M242.6,138.7c0,0,0.3,0,0.7,0.2c0.4,0.2,1.1,0.5,1.8,1c1.4,0.9,3,2.5,4.2,4.3c1.2,1.8,2.2,3.8,2.6,5.4
			c0.3,0.8,0.4,1.5,0.5,1.9c0.1,0.5,0.1,0.8,0.1,0.8s-0.2-0.2-0.5-0.6c-0.3-0.4-0.7-0.9-1.2-1.6c-0.9-1.3-2.1-3.1-3.3-4.8
			c-1.2-1.7-2.4-3.4-3.3-4.6C243.3,139.5,242.6,138.7,242.6,138.7z"/>
		<path class="st42" d="M230.6,123.6c0,0,2.4,1.3,5.6,3.8c1.6,1.3,3.5,2.8,5.3,4.6c1.9,1.7,3.7,3.8,5.5,5.9c0.9,1.1,1.7,2.2,2.5,3.3
			c0.8,1.1,1.5,2.2,2.2,3.3c1.3,2.2,2.3,4.4,3.1,6.3c0.3,1,0.6,1.9,0.8,2.7c0.3,0.8,0.3,1.5,0.5,2.1c0.2,1.2,0.3,1.8,0.3,1.8
			s-0.3-0.6-0.7-1.7c-0.2-0.5-0.4-1.2-0.8-2c-0.4-0.7-0.8-1.6-1.2-2.5c-0.5-0.9-1-1.8-1.6-2.8c-0.6-1-1.3-2-1.9-3
			c-1.4-2.1-3-4.2-4.7-6.3c-1.7-2.1-3.5-4.1-5.2-5.9c-1.7-1.8-3.3-3.5-4.8-5c-1.5-1.4-2.6-2.6-3.5-3.4
			C231.1,124,230.6,123.6,230.6,123.6z"/>
		<path class="st42" d="M166.6,132.1c0,0,0.5,0,1.3,0.3c0.8,0.2,2,0.6,3.3,1.1c2.7,1.1,6.1,2.8,9.2,5.1c1.5,1.1,3,2.4,4.3,3.7
			c1.3,1.3,2.3,2.6,3.1,3.8c0.8,1.2,1.4,2.3,1.7,3c0.3,0.8,0.5,1.2,0.5,1.2s-0.3-0.4-0.8-1.1c-0.4-0.7-1.2-1.6-2.1-2.7
			c-0.9-1.1-2.1-2.2-3.3-3.4c-1.3-1.2-2.7-2.4-4.2-3.5c-1.5-1.1-3.1-2.2-4.5-3.1c-1.5-0.9-2.9-1.8-4.1-2.4c-1.2-0.7-2.3-1.2-3-1.6
			C167.1,132.2,166.6,132.1,166.6,132.1z"/>
		<path class="st42" d="M176.8,135.5c0,0,0.9,0,2,0.4c1.2,0.4,2.6,1.3,3.9,2.4c1.3,1.1,2.3,2.4,3,3.4c0.7,1,1,1.8,1,1.8
			s-0.7-0.5-1.6-1.3c-0.9-0.8-2.1-1.9-3.3-2.9c-1.2-1-2.4-2.1-3.4-2.8C177.5,135.9,176.8,135.5,176.8,135.5z"/>
		<path class="st42" d="M170.4,130.7c0,0,1.6,0.4,3.9,1.4c1.1,0.5,2.4,1.1,3.8,1.8c1.4,0.7,2.7,1.6,4.1,2.6c1.3,1,2.6,2.1,3.7,3.1
			c1.1,1.1,2,2.3,2.7,3.3c0.7,1,1.2,1.9,1.5,2.6c0.3,0.7,0.4,1,0.4,1s-0.2-0.3-0.7-0.9c-0.4-0.6-1.1-1.3-1.8-2.3
			c-0.8-0.9-1.8-1.9-2.9-2.9c-1.1-1-2.4-2-3.7-2.9c-1.3-0.9-2.6-1.9-3.9-2.7c-1.3-0.8-2.5-1.6-3.5-2.2
			C171.8,131.5,170.4,130.7,170.4,130.7z"/>
		<path class="st42" d="M187.2,132.3c0,0,1.4,0.9,3.3,2.5c0.9,0.8,2,1.8,3,2.9c1.1,1.1,2.1,2.4,3.1,3.7c1,1.3,1.9,2.7,2.6,4.1
			c0.7,1.4,1.2,2.8,1.6,3.9c0.3,1.2,0.5,2.2,0.6,2.9c0.1,0.7,0.1,1.1,0.1,1.1s-0.1-0.4-0.4-1.1c-0.2-0.7-0.6-1.6-1.1-2.7
			c-0.5-1.1-1.2-2.3-1.9-3.6c-0.8-1.3-1.7-2.6-2.6-3.9c-0.9-1.3-1.9-2.6-2.9-3.7c-1-1.2-1.9-2.3-2.7-3.2
			C188.3,133.5,187.2,132.3,187.2,132.3z"/>
		<path class="st42" d="M162.5,138.1c0,0,1-0.2,2.6,0c1.6,0.2,3.6,0.9,5.4,2c0.9,0.6,1.7,1.2,2.4,1.9c0.7,0.7,1.3,1.4,1.7,2
			c0.5,0.6,0.8,1.2,1,1.6c0.2,0.4,0.3,0.6,0.3,0.6s-0.2-0.2-0.5-0.5c-0.3-0.3-0.8-0.7-1.3-1.3c-1.1-1-2.7-2.3-4.3-3.3
			c-0.8-0.5-1.7-1-2.5-1.4c-0.8-0.4-1.6-0.8-2.3-1C163.5,138.4,162.5,138.1,162.5,138.1z"/>
		<path class="st42" d="M151.2,143.6c0,0,1.1-0.8,3-1.5c0.9-0.3,2.1-0.7,3.3-0.9c1.3-0.2,2.6-0.3,4-0.1c1.4,0.1,2.7,0.4,3.9,0.9
			c0.6,0.2,1.2,0.5,1.7,0.8c0.5,0.3,1,0.6,1.4,0.9c0.8,0.6,1.4,1.2,1.8,1.6c0.4,0.4,0.6,0.7,0.6,0.7s-0.3-0.2-0.8-0.5
			c-0.5-0.3-1.2-0.7-2-1.2c-0.8-0.5-1.9-0.9-3-1.2c-1.1-0.4-2.4-0.6-3.6-0.7c-1.3-0.1-2.5-0.1-3.7,0c-1.2,0.1-2.3,0.2-3.3,0.4
			C152.5,143.2,151.2,143.6,151.2,143.6z"/>
		<path class="st42" d="M250.2,133.1c0,0,2.1,1.5,4.7,4.2c1.3,1.4,2.8,3.1,4.1,5c1.4,1.9,2.7,4.1,3.9,6.4c0.5,1.2,1.1,2.3,1.5,3.5
			c0.4,1.2,0.9,2.4,1.1,3.6c0.2,1.2,0.6,2.3,0.6,3.4c0.1,1.1,0.3,2.1,0.2,3.1c0,1-0.1,1.8-0.1,2.6c-0.1,0.8-0.3,1.4-0.4,2
			c-0.2,1.1-0.4,1.7-0.4,1.7s0-0.6,0-1.7c0-0.5,0-1.2,0-2c-0.1-0.8-0.2-1.6-0.3-2.5c-0.1-0.9-0.4-1.9-0.5-2.9
			c-0.1-1-0.6-2.1-0.9-3.2c-0.3-1.1-0.8-2.2-1.2-3.3c-0.4-1.1-1-2.2-1.5-3.3c-0.6-1.1-1.1-2.2-1.7-3.2c-0.6-1-1.2-2.1-1.8-3.1
			c-1.2-2-2.5-3.7-3.5-5.3C251.9,135.1,250.2,133.1,250.2,133.1z"/>
		<path class="st42" d="M297.5,133.1c0,0,0.2,0.5,0.4,1.5c0.2,0.9,0.4,2.3,0.6,3.9c0.1,1.6,0.3,3.6,0.2,5.6c0,2.1-0.3,4.3-0.6,6.5
			c-0.2,1.1-0.4,2.2-0.7,3.2c-0.3,1.1-0.5,2.1-0.9,3.1c-0.3,1-0.6,1.9-1.1,2.8c-0.4,0.9-0.7,1.7-1.1,2.4c-0.8,1.5-1.5,2.6-2.1,3.4
			c-0.6,0.8-0.9,1.2-0.9,1.2s0.2-0.5,0.7-1.4c0.2-0.4,0.5-0.9,0.8-1.5c0.2-0.6,0.5-1.3,0.9-2.1c0.4-0.7,0.6-1.6,0.9-2.5
			c0.3-0.9,0.5-1.8,0.8-2.8c0.3-1,0.5-2,0.7-3c0.3-1,0.4-2.1,0.6-3.2c0.7-4.3,0.9-8.6,1-11.9c0-1.6,0-3-0.1-3.9
			C297.6,133.7,297.5,133.1,297.5,133.1z"/>
		<path class="st42" d="M213.7,128.6c0,0,0.2,0.4,0.5,1.1c0.4,0.7,0.9,1.6,1.5,2.7c1.2,2.3,2.8,5.3,4.5,8.2c1.7,3,3.4,5.9,4.8,8.1
			c0.7,1.1,1.2,2,1.7,2.7c0.4,0.6,0.6,1,0.6,1s-0.3-0.3-0.9-0.8c-0.6-0.5-1.4-1.2-2.3-2.2c-1.8-1.9-3.9-4.7-5.6-7.8
			c-1.7-3-3-6.3-3.8-8.8c-0.4-1.2-0.6-2.3-0.8-3.1C213.7,129,213.7,128.6,213.7,128.6z"/>
		<path class="st42" d="M221.8,122.7c0,0,1.2,2.7,3.1,6.7c0.9,2,2.1,4.3,3.3,6.8c1.2,2.5,2.6,5.1,4.1,7.6c0.7,1.3,1.5,2.5,2.2,3.8
			c0.7,1.2,1.6,2.4,2.3,3.5c0.8,1.1,1.6,2.2,2.3,3.2c0.8,1,1.6,1.9,2.3,2.7c0.7,0.8,1.5,1.5,2.1,2.2c0.6,0.7,1.2,1.1,1.7,1.6
			c1,0.8,1.5,1.3,1.5,1.3s-0.6-0.4-1.7-1.1c-0.5-0.4-1.2-0.8-1.9-1.4c-0.7-0.6-1.5-1.2-2.3-2c-1.6-1.6-3.4-3.5-5-5.7
			c-0.8-1.1-1.7-2.3-2.5-3.5c-0.8-1.2-1.6-2.5-2.4-3.8c-1.5-2.6-2.8-5.2-4-7.7c-1.2-2.5-2.1-4.9-3-7
			C222.5,125.6,221.8,122.7,221.8,122.7z"/>
		<path class="st42" d="M188.5,125.1c0,0,1.7,0.5,3.8,1.9c1.1,0.7,2.3,1.6,3.5,2.7c1.2,1.1,2.3,2.3,3.4,3.7c1.1,1.3,2,2.7,2.9,4.1
			c0.8,1.4,1.5,2.7,2,3.8c0.6,1.1,0.9,2.2,1.2,2.8c0.3,0.7,0.4,1.1,0.4,1.1s-0.2-0.4-0.6-1c-0.4-0.6-0.9-1.5-1.6-2.6
			c-0.6-1.1-1.5-2.3-2.4-3.6c-0.4-0.7-0.9-1.3-1.4-1.9c-0.5-0.7-1-1.3-1.5-2c-2.1-2.6-4.4-5-6.3-6.6
			C190,125.9,188.5,125.1,188.5,125.1z"/>
	</g>
	<path class="st1" d="M222.7,257.2c1.4,3.4,6.9,10,6.9,10.4c0,0.4,1.3,5.2,2.6,6.9c1.3,1.7,5.9,4.7,5.9,4.7s0.1,2.4,1,3.3
		c0.9,0.9,3.1,1.9,3.1,1.9s-0.3,0.8,0.8,1.7c1,0.9,2.3,1.9,2.3,1.9l2,0.8c0,0,1.7,2,3,2.9c1.4,0.9,5,2.8,5,2.8s2.2,1.7,3.6,2.4
		c1.5,0.7,6.1,0.8,7.3,2.4c1.2,1.6,4.9,2.1,5.3,2.1c0.4,0,1,1.5,3.5,2.3c2.5,0.8,5.6,0.8,5.6,0.8l2.9,1.4l-14.9,5.1
		c0,0-38-11.7-38.2-12.4c-0.3-0.8-9.1-25.9-9.5-27.3C220.4,269.8,222.7,257.2,222.7,257.2z"/>
	<path class="st1" d="M309,305.2c0,0-1.6,0.4-2.5,0c0,0,0.4,0.9-1.2,1.2c-1.6,0.3-1.8-0.6-1.8-0.6s-0.6,1.1-1.1,1.1
		c-0.6,0.1-1.6-0.5-1.6-0.5s-0.6,0.7-1.5,0.8c-0.9,0-1.8-0.7-1.8-0.7s0.3,0.7-1.7,0.7c-2,0-4.8-1.6-4.8-1.6s-0.3,1-3.1,1
		c-2.8,0-3.5-1.5-3.5-1.5s-0.9,0.7-2.3,0c-1.4-0.7-2.6,2.1-2.6,2.1s12,9,14.1,9.4c2.1,0.4,14.5-2.3,14.8-3.6
		C308.6,311.8,309,305.2,309,305.2z"/>
	<path class="st1" d="M286.3,294.6c0.5-1.1,3.4-6.5,6.3-7.7c2-0.8,5.3-4,6.4-4.3c1.1-0.3,1.4-4.2,1.4-4.2l-7.1,2.2
		c0,0-5.4,6.6-5.5,7C287.7,287.9,286.3,294.6,286.3,294.6z"/>
	<path class="st1" d="M301.8,270.9c-4.1,1.3-9.1,4.5-10.5,5.7c-1.5,1.2-7.3,9-6.1,12.8c1.3,3.9,14.7-13.1,14.7-13.1L301.8,270.9z"/>
	<path class="st1" d="M234.4,214c-5.2,2.8-14.2,16.8-13.6,19.3c0.6,2.5-1.6,3.4-1.2,4.6c0.4,1.2,0.4,10.9,0.4,10.9l-14.8-16.2
		c0,0,13-29.6,13.8-30.1C219.9,202.2,234.4,214,234.4,214z"/>
	<path class="st0" d="M206.6,254.4c-2.7-6.2-6.5-10.3-8-12.6c-4.8-6-18-15.9-29.8-8.9c-11.8,7-2.4,24.9,5.4,32.9
		c3.9,4,5.6,9.1,8.4,14.3c5.6,10.3,17.7,8.7,25,4.9c0,0-0.2,1.8-0.2,1.8c0.2-2,0.6-4.1,1.1-6.4C211.2,269.3,209.4,260.7,206.6,254.4
		z"/>
	<path class="st1" d="M296.8,273.8c-7.3,4.1-14.2,11.7-10.5,20.8c0,0,3.6-9.7,13.8-12.4c10.2-2.6,14.3-1.8,15.4-3.8
		c0.2-2.6-0.9-5.1-1.9-7.3c-0.8-1.7-1.4-4.1-1.3-4.7C306.5,268.3,304.9,269.2,296.8,273.8z"/>
	<path class="st3" d="M295.3,286.4c2.7,0.5,15.9-1.4,15.9-1.4l0.8,1.2C312,286.3,307,288.1,295.3,286.4z"/>
	<g>
		<path class="st4" d="M290.6,230.4c0.7-3.8,1.4-3.2,3.2-4.7c1.8-1.4,1.3-4.7,2.8-5.4c1.4-0.7,3.5-3.9,1.9-6.5
			c-1.7-2.5-7.5-6.1-19.9-4c-12.3,2.1-10,2.8-5.4,2.2c6.7-0.8-0.3,6.2-2.4,7.8c-3.3,2.5-6.2,5.2,0,6.4
			C277.1,227.5,290.6,230.4,290.6,230.4z"/>
		<path class="st4" d="M289.9,220.3c-1.9-4.5-3.1-4.9-5.1-4.5c-2.5,0.5-20.8,11.2-12.8,10.6C279.9,225.8,289.9,220.3,289.9,220.3z"
			/>
		<path class="st5" d="M314.6,263.6c-3.4-1.3-11.5-0.6-12.6,1.7c-1.2,2.3,3.5,0.7,5.2,0.3C308.9,265.2,316.2,264,314.6,263.6z"/>
		<path class="st5" d="M314.6,263.6c-3.4-1.3-11.5-0.6-12.6,1.7c-1.2,2.3,3.5,0.7,5.2,0.3C308.9,265.2,316.2,264,314.6,263.6z"/>
		<path class="st4" d="M324.6,260c-3.6,3.6-10,3.6-10,3.6c1.6,0.4-5.7,1.6-7.4,1.9c-1.5,0.3-5,1.5-5.4,0.5c-1.1,1.2-0.9,2.7-2.9,1
			c-2.9-2.5-1.7-9.6,0.1-10.5c-3.3,1.2-5.5,6.4-3.5,9.5c2,3.1,4.6,4.6,9.5,2.8c1.4-0.5,4.3-0.8,7.4-1.3c-0.1-0.5-0.2-0.9-0.1-1.1
			C320.1,264.7,323.5,262.4,324.6,260z"/>
		<path class="st1" d="M303.3,208c-0.2,4.3-0.4,7.3-4.6,6.9c-4.1-0.4-13.1-3.8-26.2-2.4c-6.6,0.7-18,5.9-18.2,4.5
			c-0.2-1.4,5.7-8.4,15.3-10.8C279.2,203.9,303.4,205.5,303.3,208z"/>
		<path class="st6" d="M294.3,218.3c0.2,0.6,3,1.6-4.4,2c-7.5,0.4,0.3,5.5,0.3,5.5s1.4,3.3,0.5,4.5c-0.9,1.2-11,1.4-17.3-1.7
			c-4-1.9-5.5-2.9-1.6-4.6c3.9-1.7,6.3-3.4,13.6-5.3C293.1,216.8,294.1,217,294.3,218.3z"/>
		<path class="st7" d="M271.9,226.4c-0.9-1.2,6.7-5.5,18-6c0,0,1.9,0.9,1.6,4.8c-0.3,3.9-1.4,5.1-7.9,4.9
			C277.2,229.9,273.6,228.7,271.9,226.4z"/>
		<path class="st36" d="M289.9,220.3c-0.9,0-1.8,0.1-2.7,0.2c-1.8,0.5-3,1.6-3.4,3.9c-0.4,2.4,1.3,5.2,4,5.5
			c2.8-0.5,3.5-1.9,3.7-4.7C291.7,221.3,289.9,220.3,289.9,220.3z"/>
		<path class="st43" d="M288.2,229.7c-2.6-0.3-4.2-2.9-3.8-5.3c0.3-2.1,1.5-3.2,3.2-3.7c0.8-0.1,1.6-0.2,2.5-0.2
			c-0.2-0.1-0.3-0.2-0.3-0.2c-0.9,0-1.8,0.1-2.7,0.2c-1.8,0.5-3,1.6-3.4,3.9c-0.4,2.4,1.3,5.2,4,5.5c0.7-0.1,1.3-0.3,1.8-0.6
			C289.2,229.5,288.7,229.6,288.2,229.7z"/>
		<g>
			<path class="st10" d="M277.7,222.6c-4.1,1.4-7.3,3-6.8,3.6c1.3,1.8,4.8,3.1,8.8,3.6C272.5,228.7,275,223.9,277.7,222.6z"/>
			<path class="st10" d="M279,229.7c-0.1,0-0.3,0-0.4-0.1C278.7,229.7,278.8,229.7,279,229.7z"/>
		</g>
		<path class="st6" d="M288.1,224.7c0,1.3,1.1,2.4,2.4,2.4c0.2,0,0.5-0.1,0.7-0.1c0.1-0.5,0.2-1.1,0.2-1.8c0.1-1.1,0-2-0.2-2.8
			c-0.2-0.1-0.5-0.2-0.7-0.2C289.2,222.3,288.1,223.4,288.1,224.7z"/>
		<path class="st11" d="M289.8,222.2c0.3,0.5-0.1,1.3-0.9,1.8c-0.8,0.5-1.7,0.5-2,0c-0.3-0.5,0.1-1.3,0.9-1.9
			C288.6,221.7,289.5,221.7,289.8,222.2z"/>
		<path class="st11" d="M289.9,227.2c-0.1,0.3-0.6,0.5-1.1,0.4c-0.5-0.1-0.8-0.5-0.8-0.8c0.1-0.3,0.6-0.5,1.1-0.4
			S290,226.9,289.9,227.2z"/>
	</g>
</g>
</svg>
